<mxfile host="Electron" agent="Mozilla/5.0 (Macintosh; Intel Mac OS X 10_15_7) AppleWebKit/537.36 (KHTML, like Gecko) draw.io/24.7.17 Chrome/128.0.6613.36 Electron/32.0.1 Safari/537.36" version="24.7.17" pages="2">
  <diagram name="Original_MCD" id="zbgMLOIdyWvdo2cz29zy">
    <mxGraphModel dx="1885" dy="1380" grid="1" gridSize="10" guides="1" tooltips="1" connect="1" arrows="1" fold="1" page="1" pageScale="1" pageWidth="1654" pageHeight="1169" math="0" shadow="0">
      <root>
        <mxCell id="1IPGKusEmB-4JME2bSzw-0" />
        <mxCell id="1IPGKusEmB-4JME2bSzw-1" parent="1IPGKusEmB-4JME2bSzw-0" />
        <mxCell id="1IPGKusEmB-4JME2bSzw-2" value="Repères" style="swimlane;fontStyle=0;childLayout=stackLayout;horizontal=1;startSize=30;horizontalStack=0;resizeParent=1;resizeParentMax=0;resizeLast=0;collapsible=1;marginBottom=0;whiteSpace=wrap;html=1;" parent="1IPGKusEmB-4JME2bSzw-1" vertex="1">
          <mxGeometry x="742" y="444" width="140" height="150" as="geometry" />
        </mxCell>
        <mxCell id="1IPGKusEmB-4JME2bSzw-3" value="First part" style="text;strokeColor=none;fillColor=none;align=left;verticalAlign=middle;spacingLeft=4;spacingRight=4;overflow=hidden;points=[[0,0.5],[1,0.5]];portConstraint=eastwest;rotatable=0;whiteSpace=wrap;html=1;" parent="1IPGKusEmB-4JME2bSzw-2" vertex="1">
          <mxGeometry y="30" width="140" height="30" as="geometry" />
        </mxCell>
        <mxCell id="1IPGKusEmB-4JME2bSzw-4" value="Second part" style="text;strokeColor=none;fillColor=none;align=left;verticalAlign=middle;spacingLeft=4;spacingRight=4;overflow=hidden;points=[[0,0.5],[1,0.5]];portConstraint=eastwest;rotatable=0;whiteSpace=wrap;html=1;" parent="1IPGKusEmB-4JME2bSzw-2" vertex="1">
          <mxGeometry y="60" width="140" height="30" as="geometry" />
        </mxCell>
        <mxCell id="1IPGKusEmB-4JME2bSzw-5" value="Pages" style="text;strokeColor=none;fillColor=none;align=left;verticalAlign=middle;spacingLeft=4;spacingRight=4;overflow=hidden;points=[[0,0.5],[1,0.5]];portConstraint=eastwest;rotatable=0;whiteSpace=wrap;html=1;" parent="1IPGKusEmB-4JME2bSzw-2" vertex="1">
          <mxGeometry y="90" width="140" height="30" as="geometry" />
        </mxCell>
        <mxCell id="8THhAFKIlvipoxMx3lbf-1" value="&quot;Vita&quot;" style="text;strokeColor=none;fillColor=none;align=left;verticalAlign=middle;spacingLeft=4;spacingRight=4;overflow=hidden;points=[[0,0.5],[1,0.5]];portConstraint=eastwest;rotatable=0;whiteSpace=wrap;html=1;" parent="1IPGKusEmB-4JME2bSzw-2" vertex="1">
          <mxGeometry y="120" width="140" height="30" as="geometry" />
        </mxCell>
        <mxCell id="1IPGKusEmB-4JME2bSzw-6" style="edgeStyle=orthogonalEdgeStyle;rounded=0;orthogonalLoop=1;jettySize=auto;html=1;exitX=0.5;exitY=0;exitDx=0;exitDy=0;entryX=0.5;entryY=0;entryDx=0;entryDy=0;startArrow=classic;startFill=0;" parent="1IPGKusEmB-4JME2bSzw-1" target="1IPGKusEmB-4JME2bSzw-40" edge="1">
          <mxGeometry relative="1" as="geometry">
            <mxPoint x="812" y="794" as="sourcePoint" />
            <Array as="points">
              <mxPoint x="812" y="624" />
              <mxPoint x="962" y="624" />
              <mxPoint x="962" y="224" />
              <mxPoint x="812" y="224" />
            </Array>
          </mxGeometry>
        </mxCell>
        <mxCell id="1IPGKusEmB-4JME2bSzw-7" value="Is indexed in" style="edgeLabel;html=1;align=center;verticalAlign=middle;resizable=0;points=[];" parent="1IPGKusEmB-4JME2bSzw-6" vertex="1" connectable="0">
          <mxGeometry x="-0.3569" y="2" relative="1" as="geometry">
            <mxPoint as="offset" />
          </mxGeometry>
        </mxCell>
        <mxCell id="1IPGKusEmB-4JME2bSzw-8" value="0,n" style="edgeLabel;html=1;align=center;verticalAlign=middle;resizable=0;points=[];" parent="1IPGKusEmB-4JME2bSzw-6" vertex="1" connectable="0">
          <mxGeometry x="-0.9448" y="-2" relative="1" as="geometry">
            <mxPoint y="1" as="offset" />
          </mxGeometry>
        </mxCell>
        <mxCell id="1IPGKusEmB-4JME2bSzw-9" style="edgeStyle=orthogonalEdgeStyle;rounded=0;orthogonalLoop=1;jettySize=auto;html=1;exitX=0.25;exitY=0;exitDx=0;exitDy=0;entryX=0.25;entryY=0;entryDx=0;entryDy=0;startArrow=classic;startFill=0;" parent="1IPGKusEmB-4JME2bSzw-1" target="1IPGKusEmB-4JME2bSzw-2" edge="1">
          <mxGeometry relative="1" as="geometry">
            <Array as="points">
              <mxPoint x="747" y="679" />
              <mxPoint x="717" y="679" />
              <mxPoint x="717" y="424" />
              <mxPoint x="777" y="424" />
            </Array>
            <mxPoint x="747" y="794" as="sourcePoint" />
          </mxGeometry>
        </mxCell>
        <mxCell id="1IPGKusEmB-4JME2bSzw-10" value="Can be found in&amp;nbsp;" style="edgeLabel;html=1;align=center;verticalAlign=middle;resizable=0;points=[];" parent="1IPGKusEmB-4JME2bSzw-9" vertex="1" connectable="0">
          <mxGeometry x="-0.5491" y="-1" relative="1" as="geometry">
            <mxPoint as="offset" />
          </mxGeometry>
        </mxCell>
        <mxCell id="1IPGKusEmB-4JME2bSzw-11" value="0,n" style="edgeLabel;html=1;align=center;verticalAlign=middle;resizable=0;points=[];" parent="1IPGKusEmB-4JME2bSzw-9" vertex="1" connectable="0">
          <mxGeometry x="0.8197" y="2" relative="1" as="geometry">
            <mxPoint as="offset" />
          </mxGeometry>
        </mxCell>
        <mxCell id="1IPGKusEmB-4JME2bSzw-12" value="0,n" style="edgeLabel;html=1;align=center;verticalAlign=middle;resizable=0;points=[];" parent="1IPGKusEmB-4JME2bSzw-9" vertex="1" connectable="0">
          <mxGeometry x="-0.8977" y="-3" relative="1" as="geometry">
            <mxPoint y="1" as="offset" />
          </mxGeometry>
        </mxCell>
        <mxCell id="1IPGKusEmB-4JME2bSzw-13" value="&lt;meta charset=&quot;utf-8&quot;&gt;&lt;span style=&quot;color: rgb(240, 240, 240); font-family: Helvetica; font-size: 12px; font-style: normal; font-variant-ligatures: normal; font-variant-caps: normal; font-weight: 400; letter-spacing: normal; orphans: 2; text-align: center; text-indent: 0px; text-transform: none; widows: 2; word-spacing: 0px; -webkit-text-stroke-width: 0px; white-space: normal; background-color: rgb(27, 29, 30); text-decoration-thickness: initial; text-decoration-style: initial; text-decoration-color: initial; display: inline !important; float: none;&quot;&gt;Tavola de luoghi dove sono l&#39;opere descritte&lt;/span&gt;" style="swimlane;fontStyle=0;childLayout=stackLayout;horizontal=1;startSize=30;horizontalStack=0;resizeParent=1;resizeParentMax=0;resizeLast=0;collapsible=1;marginBottom=0;whiteSpace=wrap;html=1;" parent="1IPGKusEmB-4JME2bSzw-1" vertex="1">
          <mxGeometry x="677" y="794" width="260" height="150" as="geometry" />
        </mxCell>
        <mxCell id="1IPGKusEmB-4JME2bSzw-14" value="Oeuvre (description)" style="text;strokeColor=none;fillColor=none;align=left;verticalAlign=middle;spacingLeft=4;spacingRight=4;overflow=hidden;points=[[0,0.5],[1,0.5]];portConstraint=eastwest;rotatable=0;whiteSpace=wrap;html=1;" parent="1IPGKusEmB-4JME2bSzw-13" vertex="1">
          <mxGeometry y="30" width="260" height="30" as="geometry" />
        </mxCell>
        <mxCell id="1IPGKusEmB-4JME2bSzw-15" value="Location (General)" style="text;strokeColor=none;fillColor=none;align=left;verticalAlign=middle;spacingLeft=4;spacingRight=4;overflow=hidden;points=[[0,0.5],[1,0.5]];portConstraint=eastwest;rotatable=0;whiteSpace=wrap;html=1;" parent="1IPGKusEmB-4JME2bSzw-13" vertex="1">
          <mxGeometry y="60" width="260" height="30" as="geometry" />
        </mxCell>
        <mxCell id="1IPGKusEmB-4JME2bSzw-16" value="Location (Specific)" style="text;strokeColor=none;fillColor=none;align=left;verticalAlign=middle;spacingLeft=4;spacingRight=4;overflow=hidden;points=[[0,0.5],[1,0.5]];portConstraint=eastwest;rotatable=0;whiteSpace=wrap;html=1;" parent="1IPGKusEmB-4JME2bSzw-13" vertex="1">
          <mxGeometry y="90" width="260" height="30" as="geometry" />
        </mxCell>
        <mxCell id="1IPGKusEmB-4JME2bSzw-17" value="Pages" style="text;strokeColor=none;fillColor=none;align=left;verticalAlign=middle;spacingLeft=4;spacingRight=4;overflow=hidden;points=[[0,0.5],[1,0.5]];portConstraint=eastwest;rotatable=0;whiteSpace=wrap;html=1;" parent="1IPGKusEmB-4JME2bSzw-13" vertex="1">
          <mxGeometry y="120" width="260" height="30" as="geometry" />
        </mxCell>
        <mxCell id="1IPGKusEmB-4JME2bSzw-22" value="Tavola delle vite de gli artefici" style="swimlane;fontStyle=0;childLayout=stackLayout;horizontal=1;startSize=30;horizontalStack=0;resizeParent=1;resizeParentMax=0;resizeLast=0;collapsible=1;marginBottom=0;whiteSpace=wrap;html=1;" parent="1IPGKusEmB-4JME2bSzw-1" vertex="1">
          <mxGeometry x="1067" y="499" width="260" height="90" as="geometry" />
        </mxCell>
        <mxCell id="1IPGKusEmB-4JME2bSzw-23" value="Personne considérée artiste/artisan" style="text;strokeColor=none;fillColor=none;align=left;verticalAlign=middle;spacingLeft=4;spacingRight=4;overflow=hidden;points=[[0,0.5],[1,0.5]];portConstraint=eastwest;rotatable=0;whiteSpace=wrap;html=1;" parent="1IPGKusEmB-4JME2bSzw-22" vertex="1">
          <mxGeometry y="30" width="260" height="30" as="geometry" />
        </mxCell>
        <mxCell id="1IPGKusEmB-4JME2bSzw-25" value="Page" style="text;strokeColor=none;fillColor=none;align=left;verticalAlign=middle;spacingLeft=4;spacingRight=4;overflow=hidden;points=[[0,0.5],[1,0.5]];portConstraint=eastwest;rotatable=0;whiteSpace=wrap;html=1;" parent="1IPGKusEmB-4JME2bSzw-22" vertex="1">
          <mxGeometry y="60" width="260" height="30" as="geometry" />
        </mxCell>
        <mxCell id="1IPGKusEmB-4JME2bSzw-26" style="edgeStyle=orthogonalEdgeStyle;rounded=0;orthogonalLoop=1;jettySize=auto;html=1;exitX=0.5;exitY=0;exitDx=0;exitDy=0;entryX=0;entryY=0.25;entryDx=0;entryDy=0;startArrow=classic;startFill=0;" parent="1IPGKusEmB-4JME2bSzw-1" source="1IPGKusEmB-4JME2bSzw-30" target="1IPGKusEmB-4JME2bSzw-40" edge="1">
          <mxGeometry relative="1" as="geometry" />
        </mxCell>
        <mxCell id="1IPGKusEmB-4JME2bSzw-27" value="Is indexed in" style="edgeLabel;html=1;align=center;verticalAlign=middle;resizable=0;points=[];" parent="1IPGKusEmB-4JME2bSzw-26" vertex="1" connectable="0">
          <mxGeometry x="-0.4209" y="-4" relative="1" as="geometry">
            <mxPoint as="offset" />
          </mxGeometry>
        </mxCell>
        <mxCell id="1IPGKusEmB-4JME2bSzw-28" value="1,1" style="edgeLabel;html=1;align=center;verticalAlign=middle;resizable=0;points=[];" parent="1IPGKusEmB-4JME2bSzw-26" vertex="1" connectable="0">
          <mxGeometry x="-0.8475" relative="1" as="geometry">
            <mxPoint y="1" as="offset" />
          </mxGeometry>
        </mxCell>
        <mxCell id="1IPGKusEmB-4JME2bSzw-29" value="1,1" style="edgeLabel;html=1;align=center;verticalAlign=middle;resizable=0;points=[];" parent="1IPGKusEmB-4JME2bSzw-26" vertex="1" connectable="0">
          <mxGeometry x="0.8706" y="1" relative="1" as="geometry">
            <mxPoint as="offset" />
          </mxGeometry>
        </mxCell>
        <mxCell id="1IPGKusEmB-4JME2bSzw-30" value="Tavola de Ritratti che sono nominati" style="swimlane;fontStyle=0;childLayout=stackLayout;horizontal=1;startSize=30;horizontalStack=0;resizeParent=1;resizeParentMax=0;resizeLast=0;collapsible=1;marginBottom=0;whiteSpace=wrap;html=1;" parent="1IPGKusEmB-4JME2bSzw-1" vertex="1">
          <mxGeometry x="327" y="514" width="260" height="90" as="geometry" />
        </mxCell>
        <mxCell id="1IPGKusEmB-4JME2bSzw-31" value="Personne représentée" style="text;strokeColor=none;fillColor=none;align=left;verticalAlign=middle;spacingLeft=4;spacingRight=4;overflow=hidden;points=[[0,0.5],[1,0.5]];portConstraint=eastwest;rotatable=0;whiteSpace=wrap;html=1;" parent="1IPGKusEmB-4JME2bSzw-30" vertex="1">
          <mxGeometry y="30" width="260" height="30" as="geometry" />
        </mxCell>
        <mxCell id="1IPGKusEmB-4JME2bSzw-32" value="Page" style="text;strokeColor=none;fillColor=none;align=left;verticalAlign=middle;spacingLeft=4;spacingRight=4;overflow=hidden;points=[[0,0.5],[1,0.5]];portConstraint=eastwest;rotatable=0;whiteSpace=wrap;html=1;" parent="1IPGKusEmB-4JME2bSzw-30" vertex="1">
          <mxGeometry y="60" width="260" height="30" as="geometry" />
        </mxCell>
        <mxCell id="1IPGKusEmB-4JME2bSzw-33" style="edgeStyle=orthogonalEdgeStyle;rounded=0;orthogonalLoop=1;jettySize=auto;html=1;startArrow=classic;startFill=0;" parent="1IPGKusEmB-4JME2bSzw-1" source="1IPGKusEmB-4JME2bSzw-40" target="1IPGKusEmB-4JME2bSzw-2" edge="1">
          <mxGeometry relative="1" as="geometry" />
        </mxCell>
        <mxCell id="1IPGKusEmB-4JME2bSzw-34" value="Can be found in&amp;nbsp;" style="edgeLabel;html=1;align=center;verticalAlign=middle;resizable=0;points=[];" parent="1IPGKusEmB-4JME2bSzw-33" vertex="1" connectable="0">
          <mxGeometry x="-0.15" y="-4" relative="1" as="geometry">
            <mxPoint y="1" as="offset" />
          </mxGeometry>
        </mxCell>
        <mxCell id="1IPGKusEmB-4JME2bSzw-35" value="0,n" style="edgeLabel;html=1;align=center;verticalAlign=middle;resizable=0;points=[];" parent="1IPGKusEmB-4JME2bSzw-33" vertex="1" connectable="0">
          <mxGeometry x="0.4545" y="2" relative="1" as="geometry">
            <mxPoint as="offset" />
          </mxGeometry>
        </mxCell>
        <mxCell id="1IPGKusEmB-4JME2bSzw-40" value="Indice copioso della cose più notabili" style="swimlane;fontStyle=0;childLayout=stackLayout;horizontal=1;startSize=30;horizontalStack=0;resizeParent=1;resizeParentMax=0;resizeLast=0;collapsible=1;marginBottom=0;whiteSpace=wrap;html=1;" parent="1IPGKusEmB-4JME2bSzw-1" vertex="1">
          <mxGeometry x="682" y="244" width="260" height="90" as="geometry" />
        </mxCell>
        <mxCell id="1IPGKusEmB-4JME2bSzw-41" value="Name" style="text;strokeColor=none;fillColor=none;align=left;verticalAlign=middle;spacingLeft=4;spacingRight=4;overflow=hidden;points=[[0,0.5],[1,0.5]];portConstraint=eastwest;rotatable=0;whiteSpace=wrap;html=1;" parent="1IPGKusEmB-4JME2bSzw-40" vertex="1">
          <mxGeometry y="30" width="260" height="30" as="geometry" />
        </mxCell>
        <mxCell id="1IPGKusEmB-4JME2bSzw-43" value="Page" style="text;strokeColor=none;fillColor=none;align=left;verticalAlign=middle;spacingLeft=4;spacingRight=4;overflow=hidden;points=[[0,0.5],[1,0.5]];portConstraint=eastwest;rotatable=0;whiteSpace=wrap;html=1;" parent="1IPGKusEmB-4JME2bSzw-40" vertex="1">
          <mxGeometry y="60" width="260" height="30" as="geometry" />
        </mxCell>
        <mxCell id="1IPGKusEmB-4JME2bSzw-44" style="edgeStyle=orthogonalEdgeStyle;rounded=0;orthogonalLoop=1;jettySize=auto;html=1;exitX=0.5;exitY=0;exitDx=0;exitDy=0;entryX=0.999;entryY=0.169;entryDx=0;entryDy=0;entryPerimeter=0;startArrow=classic;startFill=0;" parent="1IPGKusEmB-4JME2bSzw-1" source="1IPGKusEmB-4JME2bSzw-22" target="1IPGKusEmB-4JME2bSzw-40" edge="1">
          <mxGeometry relative="1" as="geometry" />
        </mxCell>
        <mxCell id="1IPGKusEmB-4JME2bSzw-45" value="Is indexed in" style="edgeLabel;html=1;align=center;verticalAlign=middle;resizable=0;points=[];" parent="1IPGKusEmB-4JME2bSzw-44" vertex="1" connectable="0">
          <mxGeometry x="-0.3997" y="2" relative="1" as="geometry">
            <mxPoint as="offset" />
          </mxGeometry>
        </mxCell>
        <mxCell id="1IPGKusEmB-4JME2bSzw-46" value="1,1" style="edgeLabel;html=1;align=center;verticalAlign=middle;resizable=0;points=[];" parent="1IPGKusEmB-4JME2bSzw-44" vertex="1" connectable="0">
          <mxGeometry x="-0.8709" y="-4" relative="1" as="geometry">
            <mxPoint y="1" as="offset" />
          </mxGeometry>
        </mxCell>
        <mxCell id="1IPGKusEmB-4JME2bSzw-47" value="1,1" style="edgeLabel;html=1;align=center;verticalAlign=middle;resizable=0;points=[];" parent="1IPGKusEmB-4JME2bSzw-44" vertex="1" connectable="0">
          <mxGeometry x="0.8546" y="-6" relative="1" as="geometry">
            <mxPoint as="offset" />
          </mxGeometry>
        </mxCell>
        <mxCell id="1IPGKusEmB-4JME2bSzw-48" style="edgeStyle=orthogonalEdgeStyle;rounded=0;orthogonalLoop=1;jettySize=auto;html=1;exitX=1;exitY=0.25;exitDx=0;exitDy=0;entryX=-0.01;entryY=0.171;entryDx=0;entryDy=0;entryPerimeter=0;startArrow=classic;startFill=0;" parent="1IPGKusEmB-4JME2bSzw-1" source="1IPGKusEmB-4JME2bSzw-30" target="1IPGKusEmB-4JME2bSzw-2" edge="1">
          <mxGeometry relative="1" as="geometry" />
        </mxCell>
        <mxCell id="1IPGKusEmB-4JME2bSzw-49" value="Can be found in" style="edgeLabel;html=1;align=center;verticalAlign=middle;resizable=0;points=[];" parent="1IPGKusEmB-4JME2bSzw-48" vertex="1" connectable="0">
          <mxGeometry x="-0.3888" y="4" relative="1" as="geometry">
            <mxPoint as="offset" />
          </mxGeometry>
        </mxCell>
        <mxCell id="1IPGKusEmB-4JME2bSzw-50" value="0,n" style="edgeLabel;html=1;align=center;verticalAlign=middle;resizable=0;points=[];" parent="1IPGKusEmB-4JME2bSzw-48" vertex="1" connectable="0">
          <mxGeometry x="0.6489" y="2" relative="1" as="geometry">
            <mxPoint x="1" as="offset" />
          </mxGeometry>
        </mxCell>
        <mxCell id="1IPGKusEmB-4JME2bSzw-51" value="0,n" style="edgeLabel;html=1;align=center;verticalAlign=middle;resizable=0;points=[];" parent="1IPGKusEmB-4JME2bSzw-48" vertex="1" connectable="0">
          <mxGeometry x="-0.8437" y="3" relative="1" as="geometry">
            <mxPoint x="-1" as="offset" />
          </mxGeometry>
        </mxCell>
        <mxCell id="1IPGKusEmB-4JME2bSzw-52" style="edgeStyle=orthogonalEdgeStyle;rounded=0;orthogonalLoop=1;jettySize=auto;html=1;exitX=0;exitY=0.25;exitDx=0;exitDy=0;entryX=0.999;entryY=0.112;entryDx=0;entryDy=0;entryPerimeter=0;startArrow=classic;startFill=0;" parent="1IPGKusEmB-4JME2bSzw-1" source="1IPGKusEmB-4JME2bSzw-22" target="1IPGKusEmB-4JME2bSzw-2" edge="1">
          <mxGeometry relative="1" as="geometry" />
        </mxCell>
        <mxCell id="1IPGKusEmB-4JME2bSzw-53" value="Can be found in" style="edgeLabel;html=1;align=center;verticalAlign=middle;resizable=0;points=[];" parent="1IPGKusEmB-4JME2bSzw-52" vertex="1" connectable="0">
          <mxGeometry x="-0.5697" y="-4" relative="1" as="geometry">
            <mxPoint as="offset" />
          </mxGeometry>
        </mxCell>
        <mxCell id="1IPGKusEmB-4JME2bSzw-54" value="0,n" style="edgeLabel;html=1;align=center;verticalAlign=middle;resizable=0;points=[];" parent="1IPGKusEmB-4JME2bSzw-52" vertex="1" connectable="0">
          <mxGeometry x="0.7563" y="-1" relative="1" as="geometry">
            <mxPoint as="offset" />
          </mxGeometry>
        </mxCell>
      </root>
    </mxGraphModel>
  </diagram>
  <diagram id="TwP-9XNSwD_LAmmrijmL" name="Original_MLD">
    <mxGraphModel dx="754" dy="552" grid="1" gridSize="10" guides="1" tooltips="1" connect="1" arrows="1" fold="1" page="1" pageScale="1" pageWidth="1654" pageHeight="1169" math="0" shadow="0">
      <root>
        <mxCell id="0" />
        <mxCell id="1" parent="0" />
        <mxCell id="0QVIQYKZnaGji8rnq_gc-7" style="edgeStyle=orthogonalEdgeStyle;rounded=0;orthogonalLoop=1;jettySize=auto;html=1;exitX=1;exitY=0.5;exitDx=0;exitDy=0;startArrow=classic;startFill=0;entryX=1;entryY=0.5;entryDx=0;entryDy=0;" parent="1" source="A-Sq--vkPN-Wha185jc0-28" target="A-Sq--vkPN-Wha185jc0-18" edge="1">
          <mxGeometry relative="1" as="geometry">
            <mxPoint x="835" y="780" as="sourcePoint" />
            <mxPoint x="940" y="230" as="targetPoint" />
            <Array as="points">
              <mxPoint x="1000" y="865" />
              <mxPoint x="1000" y="610" />
              <mxPoint x="930" y="610" />
              <mxPoint x="930" y="220" />
              <mxPoint x="920" y="220" />
              <mxPoint x="920" y="195" />
            </Array>
          </mxGeometry>
        </mxCell>
        <mxCell id="0QVIQYKZnaGji8rnq_gc-10" value="Is indexed in" style="edgeLabel;html=1;align=center;verticalAlign=middle;resizable=0;points=[];" parent="0QVIQYKZnaGji8rnq_gc-7" vertex="1" connectable="0">
          <mxGeometry x="-0.3569" y="2" relative="1" as="geometry">
            <mxPoint y="131" as="offset" />
          </mxGeometry>
        </mxCell>
        <mxCell id="0QVIQYKZnaGji8rnq_gc-41" value="0,n" style="edgeLabel;html=1;align=center;verticalAlign=middle;resizable=0;points=[];" parent="0QVIQYKZnaGji8rnq_gc-7" vertex="1" connectable="0">
          <mxGeometry x="-0.9448" y="-2" relative="1" as="geometry">
            <mxPoint y="1" as="offset" />
          </mxGeometry>
        </mxCell>
        <mxCell id="0QVIQYKZnaGji8rnq_gc-17" style="edgeStyle=orthogonalEdgeStyle;rounded=0;orthogonalLoop=1;jettySize=auto;html=1;exitX=0;exitY=0.5;exitDx=0;exitDy=0;entryX=0;entryY=0.5;entryDx=0;entryDy=0;startArrow=classic;startFill=0;" parent="1" source="A-Sq--vkPN-Wha185jc0-31" target="A-Sq--vkPN-Wha185jc0-87" edge="1">
          <mxGeometry relative="1" as="geometry">
            <Array as="points">
              <mxPoint x="550" y="955" />
              <mxPoint x="550" y="675" />
              <mxPoint x="650" y="675" />
              <mxPoint x="650" y="555" />
            </Array>
            <mxPoint x="710" y="790" as="sourcePoint" />
            <mxPoint x="740" y="440" as="targetPoint" />
          </mxGeometry>
        </mxCell>
        <mxCell id="0QVIQYKZnaGji8rnq_gc-18" value="Can be found in&amp;nbsp;" style="edgeLabel;html=1;align=center;verticalAlign=middle;resizable=0;points=[];" parent="0QVIQYKZnaGji8rnq_gc-17" vertex="1" connectable="0">
          <mxGeometry x="-0.5491" y="-1" relative="1" as="geometry">
            <mxPoint x="9" y="-112" as="offset" />
          </mxGeometry>
        </mxCell>
        <mxCell id="0QVIQYKZnaGji8rnq_gc-39" value="0,n" style="edgeLabel;html=1;align=center;verticalAlign=middle;resizable=0;points=[];" parent="0QVIQYKZnaGji8rnq_gc-17" vertex="1" connectable="0">
          <mxGeometry x="0.8197" y="2" relative="1" as="geometry">
            <mxPoint y="-8" as="offset" />
          </mxGeometry>
        </mxCell>
        <mxCell id="0QVIQYKZnaGji8rnq_gc-42" value="0,n" style="edgeLabel;html=1;align=center;verticalAlign=middle;resizable=0;points=[];" parent="0QVIQYKZnaGji8rnq_gc-17" vertex="1" connectable="0">
          <mxGeometry x="-0.8977" y="-3" relative="1" as="geometry">
            <mxPoint y="1" as="offset" />
          </mxGeometry>
        </mxCell>
        <mxCell id="0QVIQYKZnaGji8rnq_gc-31" style="edgeStyle=orthogonalEdgeStyle;rounded=0;orthogonalLoop=1;jettySize=auto;html=1;exitX=1;exitY=0.5;exitDx=0;exitDy=0;entryX=0;entryY=0.5;entryDx=0;entryDy=0;startArrow=classic;startFill=1;endArrow=none;endFill=0;" parent="1" source="A-Sq--vkPN-Wha185jc0-50" target="A-Sq--vkPN-Wha185jc0-77" edge="1">
          <mxGeometry relative="1" as="geometry">
            <mxPoint x="1225" y="495" as="sourcePoint" />
            <mxPoint x="1487.4899999999998" y="571.8999999999999" as="targetPoint" />
            <Array as="points">
              <mxPoint x="1360" y="614" />
              <mxPoint x="1360" y="750" />
              <mxPoint x="1420" y="750" />
              <mxPoint x="1420" y="665" />
            </Array>
          </mxGeometry>
        </mxCell>
        <mxCell id="0QVIQYKZnaGji8rnq_gc-33" value="Is indexed as a..." style="edgeLabel;html=1;align=center;verticalAlign=middle;resizable=0;points=[];" parent="0QVIQYKZnaGji8rnq_gc-31" vertex="1" connectable="0">
          <mxGeometry x="-0.1638" relative="1" as="geometry">
            <mxPoint as="offset" />
          </mxGeometry>
        </mxCell>
        <mxCell id="0QVIQYKZnaGji8rnq_gc-46" value="1,n" style="edgeLabel;html=1;align=center;verticalAlign=middle;resizable=0;points=[];" parent="0QVIQYKZnaGji8rnq_gc-31" vertex="1" connectable="0">
          <mxGeometry x="0.7939" y="-3" relative="1" as="geometry">
            <mxPoint as="offset" />
          </mxGeometry>
        </mxCell>
        <mxCell id="0QVIQYKZnaGji8rnq_gc-47" value="1,n" style="edgeLabel;html=1;align=center;verticalAlign=middle;resizable=0;points=[];" parent="0QVIQYKZnaGji8rnq_gc-31" vertex="1" connectable="0">
          <mxGeometry x="-0.8721" y="1" relative="1" as="geometry">
            <mxPoint y="-1" as="offset" />
          </mxGeometry>
        </mxCell>
        <mxCell id="0QVIQYKZnaGji8rnq_gc-5" style="edgeStyle=orthogonalEdgeStyle;rounded=0;orthogonalLoop=1;jettySize=auto;html=1;entryX=0;entryY=0.5;entryDx=0;entryDy=0;startArrow=classic;startFill=0;exitX=0;exitY=0.5;exitDx=0;exitDy=0;" parent="1" source="A-Sq--vkPN-Wha185jc0-5" target="A-Sq--vkPN-Wha185jc0-18" edge="1">
          <mxGeometry relative="1" as="geometry">
            <mxPoint x="380" y="400" as="sourcePoint" />
            <mxPoint x="645" y="285" as="targetPoint" />
          </mxGeometry>
        </mxCell>
        <mxCell id="0QVIQYKZnaGji8rnq_gc-8" value="Is indexed in" style="edgeLabel;html=1;align=center;verticalAlign=middle;resizable=0;points=[];" parent="0QVIQYKZnaGji8rnq_gc-5" vertex="1" connectable="0">
          <mxGeometry x="-0.4209" y="-4" relative="1" as="geometry">
            <mxPoint as="offset" />
          </mxGeometry>
        </mxCell>
        <mxCell id="0QVIQYKZnaGji8rnq_gc-44" value="1,1" style="edgeLabel;html=1;align=center;verticalAlign=middle;resizable=0;points=[];" parent="0QVIQYKZnaGji8rnq_gc-5" vertex="1" connectable="0">
          <mxGeometry x="-0.8475" relative="1" as="geometry">
            <mxPoint y="1" as="offset" />
          </mxGeometry>
        </mxCell>
        <mxCell id="0QVIQYKZnaGji8rnq_gc-45" value="1,1" style="edgeLabel;html=1;align=center;verticalAlign=middle;resizable=0;points=[];" parent="0QVIQYKZnaGji8rnq_gc-5" vertex="1" connectable="0">
          <mxGeometry x="0.8706" y="1" relative="1" as="geometry">
            <mxPoint as="offset" />
          </mxGeometry>
        </mxCell>
        <mxCell id="0QVIQYKZnaGji8rnq_gc-19" style="edgeStyle=orthogonalEdgeStyle;rounded=0;orthogonalLoop=1;jettySize=auto;html=1;exitX=1;exitY=0.5;exitDx=0;exitDy=0;entryX=1;entryY=0.5;entryDx=0;entryDy=0;" parent="1" source="A-Sq--vkPN-Wha185jc0-21" target="A-Sq--vkPN-Wha185jc0-87" edge="1">
          <mxGeometry relative="1" as="geometry">
            <mxPoint x="775" y="330" as="sourcePoint" />
            <mxPoint x="774.9999999999998" y="440" as="targetPoint" />
            <Array as="points">
              <mxPoint x="910" y="225" />
              <mxPoint x="910" y="555" />
            </Array>
          </mxGeometry>
        </mxCell>
        <mxCell id="0QVIQYKZnaGji8rnq_gc-20" value="Can be found in&amp;nbsp;" style="edgeLabel;html=1;align=center;verticalAlign=middle;resizable=0;points=[];" parent="0QVIQYKZnaGji8rnq_gc-19" vertex="1" connectable="0">
          <mxGeometry x="-0.15" y="-4" relative="1" as="geometry">
            <mxPoint y="1" as="offset" />
          </mxGeometry>
        </mxCell>
        <mxCell id="0QVIQYKZnaGji8rnq_gc-40" value="0,n" style="edgeLabel;html=1;align=center;verticalAlign=middle;resizable=0;points=[];" parent="0QVIQYKZnaGji8rnq_gc-19" vertex="1" connectable="0">
          <mxGeometry x="0.4545" y="2" relative="1" as="geometry">
            <mxPoint as="offset" />
          </mxGeometry>
        </mxCell>
        <mxCell id="0QVIQYKZnaGji8rnq_gc-6" style="edgeStyle=orthogonalEdgeStyle;rounded=0;orthogonalLoop=1;jettySize=auto;html=1;exitX=0.5;exitY=0;exitDx=0;exitDy=0;entryX=1;entryY=0.5;entryDx=0;entryDy=0;startArrow=none;startFill=0;endArrow=none;endFill=0;" parent="1" source="A-Sq--vkPN-Wha185jc0-43" target="A-Sq--vkPN-Wha185jc0-18" edge="1">
          <mxGeometry relative="1" as="geometry">
            <mxPoint x="1160" y="495" as="sourcePoint" />
            <mxPoint x="904.7399999999998" y="255.2099999999998" as="targetPoint" />
          </mxGeometry>
        </mxCell>
        <mxCell id="0QVIQYKZnaGji8rnq_gc-9" value="Is indexed in" style="edgeLabel;html=1;align=center;verticalAlign=middle;resizable=0;points=[];" parent="0QVIQYKZnaGji8rnq_gc-6" vertex="1" connectable="0">
          <mxGeometry x="-0.3997" y="2" relative="1" as="geometry">
            <mxPoint as="offset" />
          </mxGeometry>
        </mxCell>
        <mxCell id="0QVIQYKZnaGji8rnq_gc-35" value="1,1" style="edgeLabel;html=1;align=center;verticalAlign=middle;resizable=0;points=[];" parent="0QVIQYKZnaGji8rnq_gc-6" vertex="1" connectable="0">
          <mxGeometry x="-0.8709" y="-4" relative="1" as="geometry">
            <mxPoint y="1" as="offset" />
          </mxGeometry>
        </mxCell>
        <mxCell id="0QVIQYKZnaGji8rnq_gc-36" value="1,1" style="edgeLabel;html=1;align=center;verticalAlign=middle;resizable=0;points=[];" parent="0QVIQYKZnaGji8rnq_gc-6" vertex="1" connectable="0">
          <mxGeometry x="0.8546" y="-6" relative="1" as="geometry">
            <mxPoint as="offset" />
          </mxGeometry>
        </mxCell>
        <mxCell id="0QVIQYKZnaGji8rnq_gc-13" style="edgeStyle=orthogonalEdgeStyle;rounded=0;orthogonalLoop=1;jettySize=auto;html=1;exitX=1;exitY=0.5;exitDx=0;exitDy=0;entryX=0;entryY=0.5;entryDx=0;entryDy=0;startArrow=classic;startFill=0;" parent="1" source="A-Sq--vkPN-Wha185jc0-8" target="A-Sq--vkPN-Wha185jc0-87" edge="1">
          <mxGeometry relative="1" as="geometry">
            <mxPoint x="550" y="532.5" as="sourcePoint" />
            <mxPoint x="703.6000000000001" y="460.52" as="targetPoint" />
            <Array as="points">
              <mxPoint x="510" y="395" />
              <mxPoint x="510" y="461" />
              <mxPoint x="620" y="461" />
              <mxPoint x="620" y="555" />
            </Array>
          </mxGeometry>
        </mxCell>
        <mxCell id="0QVIQYKZnaGji8rnq_gc-14" value="Can be found in" style="edgeLabel;html=1;align=center;verticalAlign=middle;resizable=0;points=[];" parent="0QVIQYKZnaGji8rnq_gc-13" vertex="1" connectable="0">
          <mxGeometry x="-0.3888" y="4" relative="1" as="geometry">
            <mxPoint as="offset" />
          </mxGeometry>
        </mxCell>
        <mxCell id="0QVIQYKZnaGji8rnq_gc-38" value="0,n" style="edgeLabel;html=1;align=center;verticalAlign=middle;resizable=0;points=[];" parent="0QVIQYKZnaGji8rnq_gc-13" vertex="1" connectable="0">
          <mxGeometry x="0.6489" y="2" relative="1" as="geometry">
            <mxPoint x="1" as="offset" />
          </mxGeometry>
        </mxCell>
        <mxCell id="0QVIQYKZnaGji8rnq_gc-43" value="0,n" style="edgeLabel;html=1;align=center;verticalAlign=middle;resizable=0;points=[];" parent="0QVIQYKZnaGji8rnq_gc-13" vertex="1" connectable="0">
          <mxGeometry x="-0.8437" y="3" relative="1" as="geometry">
            <mxPoint x="-1" as="offset" />
          </mxGeometry>
        </mxCell>
        <mxCell id="0QVIQYKZnaGji8rnq_gc-15" style="edgeStyle=orthogonalEdgeStyle;rounded=0;orthogonalLoop=1;jettySize=auto;html=1;exitX=0;exitY=0.5;exitDx=0;exitDy=0;entryX=1;entryY=0.5;entryDx=0;entryDy=0;startArrow=classic;startFill=0;" parent="1" source="A-Sq--vkPN-Wha185jc0-56" target="A-Sq--vkPN-Wha185jc0-87" edge="1">
          <mxGeometry relative="1" as="geometry">
            <mxPoint x="1030" y="525" as="sourcePoint" />
            <mxPoint x="844.8600000000001" y="453.44000000000005" as="targetPoint" />
          </mxGeometry>
        </mxCell>
        <mxCell id="0QVIQYKZnaGji8rnq_gc-16" value="Can be found in" style="edgeLabel;html=1;align=center;verticalAlign=middle;resizable=0;points=[];" parent="0QVIQYKZnaGji8rnq_gc-15" vertex="1" connectable="0">
          <mxGeometry x="-0.5697" y="-4" relative="1" as="geometry">
            <mxPoint as="offset" />
          </mxGeometry>
        </mxCell>
        <mxCell id="0QVIQYKZnaGji8rnq_gc-37" value="0,n" style="edgeLabel;html=1;align=center;verticalAlign=middle;resizable=0;points=[];" parent="0QVIQYKZnaGji8rnq_gc-15" vertex="1" connectable="0">
          <mxGeometry x="0.7563" y="-1" relative="1" as="geometry">
            <mxPoint as="offset" />
          </mxGeometry>
        </mxCell>
        <mxCell id="A-Sq--vkPN-Wha185jc0-1" value="Tavola di Ritratti che sono nominati" style="shape=table;startSize=30;container=1;collapsible=1;childLayout=tableLayout;fixedRows=1;rowLines=0;fontStyle=1;align=center;resizeLast=1;html=1;" parent="1" vertex="1">
          <mxGeometry x="270" y="290" width="219.99999999999977" height="150" as="geometry" />
        </mxCell>
        <mxCell id="A-Sq--vkPN-Wha185jc0-2" value="" style="shape=tableRow;horizontal=0;startSize=0;swimlaneHead=0;swimlaneBody=0;fillColor=none;collapsible=0;dropTarget=0;points=[[0,0.5],[1,0.5]];portConstraint=eastwest;top=0;left=0;right=0;bottom=1;" parent="A-Sq--vkPN-Wha185jc0-1" vertex="1">
          <mxGeometry y="30" width="219.99999999999977" height="30" as="geometry" />
        </mxCell>
        <mxCell id="A-Sq--vkPN-Wha185jc0-3" value="PK" style="shape=partialRectangle;connectable=0;fillColor=none;top=0;left=0;bottom=0;right=0;fontStyle=1;overflow=hidden;whiteSpace=wrap;html=1;" parent="A-Sq--vkPN-Wha185jc0-2" vertex="1">
          <mxGeometry width="60" height="30" as="geometry">
            <mxRectangle width="60" height="30" as="alternateBounds" />
          </mxGeometry>
        </mxCell>
        <mxCell id="A-Sq--vkPN-Wha185jc0-4" value="R" style="shape=partialRectangle;connectable=0;fillColor=none;top=0;left=0;bottom=0;right=0;align=left;spacingLeft=6;fontStyle=5;overflow=hidden;whiteSpace=wrap;html=1;" parent="A-Sq--vkPN-Wha185jc0-2" vertex="1">
          <mxGeometry x="60" width="159.99999999999977" height="30" as="geometry">
            <mxRectangle width="159.99999999999977" height="30" as="alternateBounds" />
          </mxGeometry>
        </mxCell>
        <mxCell id="A-Sq--vkPN-Wha185jc0-5" value="" style="shape=tableRow;horizontal=0;startSize=0;swimlaneHead=0;swimlaneBody=0;fillColor=none;collapsible=0;dropTarget=0;points=[[0,0.5],[1,0.5]];portConstraint=eastwest;top=0;left=0;right=0;bottom=0;" parent="A-Sq--vkPN-Wha185jc0-1" vertex="1">
          <mxGeometry y="60" width="219.99999999999977" height="30" as="geometry" />
        </mxCell>
        <mxCell id="A-Sq--vkPN-Wha185jc0-6" value="FK_Co" style="shape=partialRectangle;connectable=0;fillColor=none;top=0;left=0;bottom=0;right=0;editable=1;overflow=hidden;whiteSpace=wrap;html=1;" parent="A-Sq--vkPN-Wha185jc0-5" vertex="1">
          <mxGeometry width="60" height="30" as="geometry">
            <mxRectangle width="60" height="30" as="alternateBounds" />
          </mxGeometry>
        </mxCell>
        <mxCell id="A-Sq--vkPN-Wha185jc0-7" value="Name" style="shape=partialRectangle;connectable=0;fillColor=none;top=0;left=0;bottom=0;right=0;align=left;spacingLeft=6;overflow=hidden;whiteSpace=wrap;html=1;" parent="A-Sq--vkPN-Wha185jc0-5" vertex="1">
          <mxGeometry x="60" width="159.99999999999977" height="30" as="geometry">
            <mxRectangle width="159.99999999999977" height="30" as="alternateBounds" />
          </mxGeometry>
        </mxCell>
        <mxCell id="A-Sq--vkPN-Wha185jc0-8" value="" style="shape=tableRow;horizontal=0;startSize=0;swimlaneHead=0;swimlaneBody=0;fillColor=none;collapsible=0;dropTarget=0;points=[[0,0.5],[1,0.5]];portConstraint=eastwest;top=0;left=0;right=0;bottom=0;" parent="A-Sq--vkPN-Wha185jc0-1" vertex="1">
          <mxGeometry y="90" width="219.99999999999977" height="30" as="geometry" />
        </mxCell>
        <mxCell id="A-Sq--vkPN-Wha185jc0-9" value="FK_P" style="shape=partialRectangle;connectable=0;fillColor=none;top=0;left=0;bottom=0;right=0;editable=1;overflow=hidden;whiteSpace=wrap;html=1;" parent="A-Sq--vkPN-Wha185jc0-8" vertex="1">
          <mxGeometry width="60" height="30" as="geometry">
            <mxRectangle width="60" height="30" as="alternateBounds" />
          </mxGeometry>
        </mxCell>
        <mxCell id="A-Sq--vkPN-Wha185jc0-10" value="Page" style="shape=partialRectangle;connectable=0;fillColor=none;top=0;left=0;bottom=0;right=0;align=left;spacingLeft=6;overflow=hidden;whiteSpace=wrap;html=1;" parent="A-Sq--vkPN-Wha185jc0-8" vertex="1">
          <mxGeometry x="60" width="159.99999999999977" height="30" as="geometry">
            <mxRectangle width="159.99999999999977" height="30" as="alternateBounds" />
          </mxGeometry>
        </mxCell>
        <mxCell id="A-Sq--vkPN-Wha185jc0-93" style="shape=tableRow;horizontal=0;startSize=0;swimlaneHead=0;swimlaneBody=0;fillColor=none;collapsible=0;dropTarget=0;points=[[0,0.5],[1,0.5]];portConstraint=eastwest;top=0;left=0;right=0;bottom=0;" parent="A-Sq--vkPN-Wha185jc0-1" vertex="1">
          <mxGeometry y="120" width="219.99999999999977" height="30" as="geometry" />
        </mxCell>
        <mxCell id="A-Sq--vkPN-Wha185jc0-94" value="FK_S" style="shape=partialRectangle;connectable=0;fillColor=none;top=0;left=0;bottom=0;right=0;editable=1;overflow=hidden;whiteSpace=wrap;html=1;" parent="A-Sq--vkPN-Wha185jc0-93" vertex="1">
          <mxGeometry width="60" height="30" as="geometry">
            <mxRectangle width="60" height="30" as="alternateBounds" />
          </mxGeometry>
        </mxCell>
        <mxCell id="A-Sq--vkPN-Wha185jc0-95" value="Section" style="shape=partialRectangle;connectable=0;fillColor=none;top=0;left=0;bottom=0;right=0;align=left;spacingLeft=6;overflow=hidden;whiteSpace=wrap;html=1;" parent="A-Sq--vkPN-Wha185jc0-93" vertex="1">
          <mxGeometry x="60" width="159.99999999999977" height="30" as="geometry">
            <mxRectangle width="159.99999999999977" height="30" as="alternateBounds" />
          </mxGeometry>
        </mxCell>
        <mxCell id="A-Sq--vkPN-Wha185jc0-14" value="Indice copioso delle cose più notabili" style="shape=table;startSize=30;container=1;collapsible=1;childLayout=tableLayout;fixedRows=1;rowLines=0;fontStyle=1;align=center;resizeLast=1;html=1;" parent="1" vertex="1">
          <mxGeometry x="580" y="120" width="310" height="200" as="geometry" />
        </mxCell>
        <mxCell id="A-Sq--vkPN-Wha185jc0-15" value="" style="shape=tableRow;horizontal=0;startSize=0;swimlaneHead=0;swimlaneBody=0;fillColor=none;collapsible=0;dropTarget=0;points=[[0,0.5],[1,0.5]];portConstraint=eastwest;top=0;left=0;right=0;bottom=1;" parent="A-Sq--vkPN-Wha185jc0-14" vertex="1">
          <mxGeometry y="30" width="310" height="30" as="geometry" />
        </mxCell>
        <mxCell id="A-Sq--vkPN-Wha185jc0-16" value="PK" style="shape=partialRectangle;connectable=0;fillColor=none;top=0;left=0;bottom=0;right=0;fontStyle=1;overflow=hidden;whiteSpace=wrap;html=1;" parent="A-Sq--vkPN-Wha185jc0-15" vertex="1">
          <mxGeometry width="120" height="30" as="geometry">
            <mxRectangle width="120" height="30" as="alternateBounds" />
          </mxGeometry>
        </mxCell>
        <mxCell id="A-Sq--vkPN-Wha185jc0-17" value="Co" style="shape=partialRectangle;connectable=0;fillColor=none;top=0;left=0;bottom=0;right=0;align=left;spacingLeft=6;fontStyle=5;overflow=hidden;whiteSpace=wrap;html=1;" parent="A-Sq--vkPN-Wha185jc0-15" vertex="1">
          <mxGeometry x="120" width="190" height="30" as="geometry">
            <mxRectangle width="190" height="30" as="alternateBounds" />
          </mxGeometry>
        </mxCell>
        <mxCell id="A-Sq--vkPN-Wha185jc0-18" value="" style="shape=tableRow;horizontal=0;startSize=0;swimlaneHead=0;swimlaneBody=0;fillColor=none;collapsible=0;dropTarget=0;points=[[0,0.5],[1,0.5]];portConstraint=eastwest;top=0;left=0;right=0;bottom=0;" parent="A-Sq--vkPN-Wha185jc0-14" vertex="1">
          <mxGeometry y="60" width="310" height="50" as="geometry" />
        </mxCell>
        <mxCell id="A-Sq--vkPN-Wha185jc0-19" value="FK_R, FK_A, FK_NA, FK_O, FK_LG, FK_LS" style="shape=partialRectangle;connectable=0;fillColor=none;top=0;left=0;bottom=0;right=0;editable=1;overflow=hidden;whiteSpace=wrap;html=1;" parent="A-Sq--vkPN-Wha185jc0-18" vertex="1">
          <mxGeometry width="120" height="50" as="geometry">
            <mxRectangle width="120" height="50" as="alternateBounds" />
          </mxGeometry>
        </mxCell>
        <mxCell id="A-Sq--vkPN-Wha185jc0-20" value="Name" style="shape=partialRectangle;connectable=0;fillColor=none;top=0;left=0;bottom=0;right=0;align=left;spacingLeft=6;overflow=hidden;whiteSpace=wrap;html=1;" parent="A-Sq--vkPN-Wha185jc0-18" vertex="1">
          <mxGeometry x="120" width="190" height="50" as="geometry">
            <mxRectangle width="190" height="50" as="alternateBounds" />
          </mxGeometry>
        </mxCell>
        <mxCell id="A-Sq--vkPN-Wha185jc0-21" value="" style="shape=tableRow;horizontal=0;startSize=0;swimlaneHead=0;swimlaneBody=0;fillColor=none;collapsible=0;dropTarget=0;points=[[0,0.5],[1,0.5]];portConstraint=eastwest;top=0;left=0;right=0;bottom=0;" parent="A-Sq--vkPN-Wha185jc0-14" vertex="1">
          <mxGeometry y="110" width="310" height="30" as="geometry" />
        </mxCell>
        <mxCell id="A-Sq--vkPN-Wha185jc0-22" value="FK_P" style="shape=partialRectangle;connectable=0;fillColor=none;top=0;left=0;bottom=0;right=0;editable=1;overflow=hidden;whiteSpace=wrap;html=1;" parent="A-Sq--vkPN-Wha185jc0-21" vertex="1">
          <mxGeometry width="120" height="30" as="geometry">
            <mxRectangle width="120" height="30" as="alternateBounds" />
          </mxGeometry>
        </mxCell>
        <mxCell id="A-Sq--vkPN-Wha185jc0-23" value="Pages" style="shape=partialRectangle;connectable=0;fillColor=none;top=0;left=0;bottom=0;right=0;align=left;spacingLeft=6;overflow=hidden;whiteSpace=wrap;html=1;" parent="A-Sq--vkPN-Wha185jc0-21" vertex="1">
          <mxGeometry x="120" width="190" height="30" as="geometry">
            <mxRectangle width="190" height="30" as="alternateBounds" />
          </mxGeometry>
        </mxCell>
        <mxCell id="A-Sq--vkPN-Wha185jc0-90" style="shape=tableRow;horizontal=0;startSize=0;swimlaneHead=0;swimlaneBody=0;fillColor=none;collapsible=0;dropTarget=0;points=[[0,0.5],[1,0.5]];portConstraint=eastwest;top=0;left=0;right=0;bottom=0;" parent="A-Sq--vkPN-Wha185jc0-14" vertex="1">
          <mxGeometry y="140" width="310" height="30" as="geometry" />
        </mxCell>
        <mxCell id="A-Sq--vkPN-Wha185jc0-91" value="FK_S" style="shape=partialRectangle;connectable=0;fillColor=none;top=0;left=0;bottom=0;right=0;editable=1;overflow=hidden;whiteSpace=wrap;html=1;" parent="A-Sq--vkPN-Wha185jc0-90" vertex="1">
          <mxGeometry width="120" height="30" as="geometry">
            <mxRectangle width="120" height="30" as="alternateBounds" />
          </mxGeometry>
        </mxCell>
        <mxCell id="A-Sq--vkPN-Wha185jc0-92" value="Section" style="shape=partialRectangle;connectable=0;fillColor=none;top=0;left=0;bottom=0;right=0;align=left;spacingLeft=6;overflow=hidden;whiteSpace=wrap;html=1;" parent="A-Sq--vkPN-Wha185jc0-90" vertex="1">
          <mxGeometry x="120" width="190" height="30" as="geometry">
            <mxRectangle width="190" height="30" as="alternateBounds" />
          </mxGeometry>
        </mxCell>
        <mxCell id="59b3F3UpA_xY0RzTpe_1-7" style="shape=tableRow;horizontal=0;startSize=0;swimlaneHead=0;swimlaneBody=0;fillColor=none;collapsible=0;dropTarget=0;points=[[0,0.5],[1,0.5]];portConstraint=eastwest;top=0;left=0;right=0;bottom=0;" parent="A-Sq--vkPN-Wha185jc0-14" vertex="1">
          <mxGeometry y="170" width="310" height="30" as="geometry" />
        </mxCell>
        <mxCell id="59b3F3UpA_xY0RzTpe_1-8" value="FK_V" style="shape=partialRectangle;connectable=0;fillColor=none;top=0;left=0;bottom=0;right=0;editable=1;overflow=hidden;whiteSpace=wrap;html=1;" parent="59b3F3UpA_xY0RzTpe_1-7" vertex="1">
          <mxGeometry width="120" height="30" as="geometry">
            <mxRectangle width="120" height="30" as="alternateBounds" />
          </mxGeometry>
        </mxCell>
        <mxCell id="59b3F3UpA_xY0RzTpe_1-9" value="&quot;Vita&quot;" style="shape=partialRectangle;connectable=0;fillColor=none;top=0;left=0;bottom=0;right=0;align=left;spacingLeft=6;overflow=hidden;whiteSpace=wrap;html=1;" parent="59b3F3UpA_xY0RzTpe_1-7" vertex="1">
          <mxGeometry x="120" width="190" height="30" as="geometry">
            <mxRectangle width="190" height="30" as="alternateBounds" />
          </mxGeometry>
        </mxCell>
        <mxCell id="A-Sq--vkPN-Wha185jc0-24" value="Tavola de luoghi dove sono l&#39;opere descritte" style="shape=table;startSize=30;container=1;collapsible=1;childLayout=tableLayout;fixedRows=1;rowLines=0;fontStyle=1;align=center;resizeLast=1;html=1;" parent="1" vertex="1">
          <mxGeometry x="610" y="790" width="310" height="210" as="geometry" />
        </mxCell>
        <mxCell id="A-Sq--vkPN-Wha185jc0-25" value="" style="shape=tableRow;horizontal=0;startSize=0;swimlaneHead=0;swimlaneBody=0;fillColor=none;collapsible=0;dropTarget=0;points=[[0,0.5],[1,0.5]];portConstraint=eastwest;top=0;left=0;right=0;bottom=1;" parent="A-Sq--vkPN-Wha185jc0-24" vertex="1">
          <mxGeometry y="30" width="310" height="30" as="geometry" />
        </mxCell>
        <mxCell id="A-Sq--vkPN-Wha185jc0-26" value="PK" style="shape=partialRectangle;connectable=0;fillColor=none;top=0;left=0;bottom=0;right=0;fontStyle=1;overflow=hidden;whiteSpace=wrap;html=1;" parent="A-Sq--vkPN-Wha185jc0-25" vertex="1">
          <mxGeometry width="60" height="30" as="geometry">
            <mxRectangle width="60" height="30" as="alternateBounds" />
          </mxGeometry>
        </mxCell>
        <mxCell id="A-Sq--vkPN-Wha185jc0-27" value="O" style="shape=partialRectangle;connectable=0;fillColor=none;top=0;left=0;bottom=0;right=0;align=left;spacingLeft=6;fontStyle=5;overflow=hidden;whiteSpace=wrap;html=1;" parent="A-Sq--vkPN-Wha185jc0-25" vertex="1">
          <mxGeometry x="60" width="250" height="30" as="geometry">
            <mxRectangle width="250" height="30" as="alternateBounds" />
          </mxGeometry>
        </mxCell>
        <mxCell id="A-Sq--vkPN-Wha185jc0-28" value="" style="shape=tableRow;horizontal=0;startSize=0;swimlaneHead=0;swimlaneBody=0;fillColor=none;collapsible=0;dropTarget=0;points=[[0,0.5],[1,0.5]];portConstraint=eastwest;top=0;left=0;right=0;bottom=0;" parent="A-Sq--vkPN-Wha185jc0-24" vertex="1">
          <mxGeometry y="60" width="310" height="30" as="geometry" />
        </mxCell>
        <mxCell id="A-Sq--vkPN-Wha185jc0-29" value="" style="shape=partialRectangle;connectable=0;fillColor=none;top=0;left=0;bottom=0;right=0;editable=1;overflow=hidden;whiteSpace=wrap;html=1;" parent="A-Sq--vkPN-Wha185jc0-28" vertex="1">
          <mxGeometry width="60" height="30" as="geometry">
            <mxRectangle width="60" height="30" as="alternateBounds" />
          </mxGeometry>
        </mxCell>
        <mxCell id="A-Sq--vkPN-Wha185jc0-30" value="Description" style="shape=partialRectangle;connectable=0;fillColor=none;top=0;left=0;bottom=0;right=0;align=left;spacingLeft=6;overflow=hidden;whiteSpace=wrap;html=1;" parent="A-Sq--vkPN-Wha185jc0-28" vertex="1">
          <mxGeometry x="60" width="250" height="30" as="geometry">
            <mxRectangle width="250" height="30" as="alternateBounds" />
          </mxGeometry>
        </mxCell>
        <mxCell id="A-Sq--vkPN-Wha185jc0-40" style="shape=tableRow;horizontal=0;startSize=0;swimlaneHead=0;swimlaneBody=0;fillColor=none;collapsible=0;dropTarget=0;points=[[0,0.5],[1,0.5]];portConstraint=eastwest;top=0;left=0;right=0;bottom=0;" parent="A-Sq--vkPN-Wha185jc0-24" vertex="1">
          <mxGeometry y="90" width="310" height="30" as="geometry" />
        </mxCell>
        <mxCell id="A-Sq--vkPN-Wha185jc0-41" value="FK_LG" style="shape=partialRectangle;connectable=0;fillColor=none;top=0;left=0;bottom=0;right=0;editable=1;overflow=hidden;whiteSpace=wrap;html=1;" parent="A-Sq--vkPN-Wha185jc0-40" vertex="1">
          <mxGeometry width="60" height="30" as="geometry">
            <mxRectangle width="60" height="30" as="alternateBounds" />
          </mxGeometry>
        </mxCell>
        <mxCell id="A-Sq--vkPN-Wha185jc0-42" value="Location_General" style="shape=partialRectangle;connectable=0;fillColor=none;top=0;left=0;bottom=0;right=0;align=left;spacingLeft=6;overflow=hidden;whiteSpace=wrap;html=1;" parent="A-Sq--vkPN-Wha185jc0-40" vertex="1">
          <mxGeometry x="60" width="250" height="30" as="geometry">
            <mxRectangle width="250" height="30" as="alternateBounds" />
          </mxGeometry>
        </mxCell>
        <mxCell id="A-Sq--vkPN-Wha185jc0-37" style="shape=tableRow;horizontal=0;startSize=0;swimlaneHead=0;swimlaneBody=0;fillColor=none;collapsible=0;dropTarget=0;points=[[0,0.5],[1,0.5]];portConstraint=eastwest;top=0;left=0;right=0;bottom=0;" parent="A-Sq--vkPN-Wha185jc0-24" vertex="1">
          <mxGeometry y="120" width="310" height="30" as="geometry" />
        </mxCell>
        <mxCell id="A-Sq--vkPN-Wha185jc0-38" value="FK_LS" style="shape=partialRectangle;connectable=0;fillColor=none;top=0;left=0;bottom=0;right=0;editable=1;overflow=hidden;whiteSpace=wrap;html=1;" parent="A-Sq--vkPN-Wha185jc0-37" vertex="1">
          <mxGeometry width="60" height="30" as="geometry">
            <mxRectangle width="60" height="30" as="alternateBounds" />
          </mxGeometry>
        </mxCell>
        <mxCell id="A-Sq--vkPN-Wha185jc0-39" value="Location_Specific" style="shape=partialRectangle;connectable=0;fillColor=none;top=0;left=0;bottom=0;right=0;align=left;spacingLeft=6;overflow=hidden;whiteSpace=wrap;html=1;" parent="A-Sq--vkPN-Wha185jc0-37" vertex="1">
          <mxGeometry x="60" width="250" height="30" as="geometry">
            <mxRectangle width="250" height="30" as="alternateBounds" />
          </mxGeometry>
        </mxCell>
        <mxCell id="A-Sq--vkPN-Wha185jc0-31" value="" style="shape=tableRow;horizontal=0;startSize=0;swimlaneHead=0;swimlaneBody=0;fillColor=none;collapsible=0;dropTarget=0;points=[[0,0.5],[1,0.5]];portConstraint=eastwest;top=0;left=0;right=0;bottom=0;" parent="A-Sq--vkPN-Wha185jc0-24" vertex="1">
          <mxGeometry y="150" width="310" height="30" as="geometry" />
        </mxCell>
        <mxCell id="A-Sq--vkPN-Wha185jc0-32" value="FK_P" style="shape=partialRectangle;connectable=0;fillColor=none;top=0;left=0;bottom=0;right=0;editable=1;overflow=hidden;whiteSpace=wrap;html=1;" parent="A-Sq--vkPN-Wha185jc0-31" vertex="1">
          <mxGeometry width="60" height="30" as="geometry">
            <mxRectangle width="60" height="30" as="alternateBounds" />
          </mxGeometry>
        </mxCell>
        <mxCell id="A-Sq--vkPN-Wha185jc0-33" value="Page" style="shape=partialRectangle;connectable=0;fillColor=none;top=0;left=0;bottom=0;right=0;align=left;spacingLeft=6;overflow=hidden;whiteSpace=wrap;html=1;" parent="A-Sq--vkPN-Wha185jc0-31" vertex="1">
          <mxGeometry x="60" width="250" height="30" as="geometry">
            <mxRectangle width="250" height="30" as="alternateBounds" />
          </mxGeometry>
        </mxCell>
        <mxCell id="A-Sq--vkPN-Wha185jc0-96" style="shape=tableRow;horizontal=0;startSize=0;swimlaneHead=0;swimlaneBody=0;fillColor=none;collapsible=0;dropTarget=0;points=[[0,0.5],[1,0.5]];portConstraint=eastwest;top=0;left=0;right=0;bottom=0;" parent="A-Sq--vkPN-Wha185jc0-24" vertex="1">
          <mxGeometry y="180" width="310" height="30" as="geometry" />
        </mxCell>
        <mxCell id="A-Sq--vkPN-Wha185jc0-97" value="FK_S" style="shape=partialRectangle;connectable=0;fillColor=none;top=0;left=0;bottom=0;right=0;editable=1;overflow=hidden;whiteSpace=wrap;html=1;" parent="A-Sq--vkPN-Wha185jc0-96" vertex="1">
          <mxGeometry width="60" height="30" as="geometry">
            <mxRectangle width="60" height="30" as="alternateBounds" />
          </mxGeometry>
        </mxCell>
        <mxCell id="A-Sq--vkPN-Wha185jc0-98" value="Section" style="shape=partialRectangle;connectable=0;fillColor=none;top=0;left=0;bottom=0;right=0;align=left;spacingLeft=6;overflow=hidden;whiteSpace=wrap;html=1;" parent="A-Sq--vkPN-Wha185jc0-96" vertex="1">
          <mxGeometry x="60" width="250" height="30" as="geometry">
            <mxRectangle width="250" height="30" as="alternateBounds" />
          </mxGeometry>
        </mxCell>
        <mxCell id="A-Sq--vkPN-Wha185jc0-43" value="Tavola delle vite de gli artefici" style="shape=table;startSize=30;container=1;collapsible=1;childLayout=tableLayout;fixedRows=1;rowLines=0;fontStyle=1;align=center;resizeLast=1;html=1;" parent="1" vertex="1">
          <mxGeometry x="1030" y="509" width="310" height="181" as="geometry" />
        </mxCell>
        <mxCell id="A-Sq--vkPN-Wha185jc0-44" value="" style="shape=tableRow;horizontal=0;startSize=0;swimlaneHead=0;swimlaneBody=0;fillColor=none;collapsible=0;dropTarget=0;points=[[0,0.5],[1,0.5]];portConstraint=eastwest;top=0;left=0;right=0;bottom=1;" parent="A-Sq--vkPN-Wha185jc0-43" vertex="1">
          <mxGeometry y="30" width="310" height="30" as="geometry" />
        </mxCell>
        <mxCell id="A-Sq--vkPN-Wha185jc0-45" value="PK" style="shape=partialRectangle;connectable=0;fillColor=none;top=0;left=0;bottom=0;right=0;fontStyle=1;overflow=hidden;whiteSpace=wrap;html=1;" parent="A-Sq--vkPN-Wha185jc0-44" vertex="1">
          <mxGeometry width="60" height="30" as="geometry">
            <mxRectangle width="60" height="30" as="alternateBounds" />
          </mxGeometry>
        </mxCell>
        <mxCell id="A-Sq--vkPN-Wha185jc0-46" value="A" style="shape=partialRectangle;connectable=0;fillColor=none;top=0;left=0;bottom=0;right=0;align=left;spacingLeft=6;fontStyle=5;overflow=hidden;whiteSpace=wrap;html=1;" parent="A-Sq--vkPN-Wha185jc0-44" vertex="1">
          <mxGeometry x="60" width="250" height="30" as="geometry">
            <mxRectangle width="250" height="30" as="alternateBounds" />
          </mxGeometry>
        </mxCell>
        <mxCell id="A-Sq--vkPN-Wha185jc0-47" value="" style="shape=tableRow;horizontal=0;startSize=0;swimlaneHead=0;swimlaneBody=0;fillColor=none;collapsible=0;dropTarget=0;points=[[0,0.5],[1,0.5]];portConstraint=eastwest;top=0;left=0;right=0;bottom=0;" parent="A-Sq--vkPN-Wha185jc0-43" vertex="1">
          <mxGeometry y="60" width="310" height="30" as="geometry" />
        </mxCell>
        <mxCell id="A-Sq--vkPN-Wha185jc0-48" value="FK_NA" style="shape=partialRectangle;connectable=0;fillColor=none;top=0;left=0;bottom=0;right=0;editable=1;overflow=hidden;whiteSpace=wrap;html=1;" parent="A-Sq--vkPN-Wha185jc0-47" vertex="1">
          <mxGeometry width="60" height="30" as="geometry">
            <mxRectangle width="60" height="30" as="alternateBounds" />
          </mxGeometry>
        </mxCell>
        <mxCell id="A-Sq--vkPN-Wha185jc0-49" value="Name" style="shape=partialRectangle;connectable=0;fillColor=none;top=0;left=0;bottom=0;right=0;align=left;spacingLeft=6;overflow=hidden;whiteSpace=wrap;html=1;" parent="A-Sq--vkPN-Wha185jc0-47" vertex="1">
          <mxGeometry x="60" width="250" height="30" as="geometry">
            <mxRectangle width="250" height="30" as="alternateBounds" />
          </mxGeometry>
        </mxCell>
        <mxCell id="A-Sq--vkPN-Wha185jc0-50" style="shape=tableRow;horizontal=0;startSize=0;swimlaneHead=0;swimlaneBody=0;fillColor=none;collapsible=0;dropTarget=0;points=[[0,0.5],[1,0.5]];portConstraint=eastwest;top=0;left=0;right=0;bottom=0;" parent="A-Sq--vkPN-Wha185jc0-43" vertex="1">
          <mxGeometry y="90" width="310" height="30" as="geometry" />
        </mxCell>
        <mxCell id="A-Sq--vkPN-Wha185jc0-51" value="FK_PR" style="shape=partialRectangle;connectable=0;fillColor=none;top=0;left=0;bottom=0;right=0;editable=1;overflow=hidden;whiteSpace=wrap;html=1;" parent="A-Sq--vkPN-Wha185jc0-50" vertex="1">
          <mxGeometry width="60" height="30" as="geometry">
            <mxRectangle width="60" height="30" as="alternateBounds" />
          </mxGeometry>
        </mxCell>
        <mxCell id="A-Sq--vkPN-Wha185jc0-52" value="Profession" style="shape=partialRectangle;connectable=0;fillColor=none;top=0;left=0;bottom=0;right=0;align=left;spacingLeft=6;overflow=hidden;whiteSpace=wrap;html=1;" parent="A-Sq--vkPN-Wha185jc0-50" vertex="1">
          <mxGeometry x="60" width="250" height="30" as="geometry">
            <mxRectangle width="250" height="30" as="alternateBounds" />
          </mxGeometry>
        </mxCell>
        <mxCell id="A-Sq--vkPN-Wha185jc0-56" value="" style="shape=tableRow;horizontal=0;startSize=0;swimlaneHead=0;swimlaneBody=0;fillColor=none;collapsible=0;dropTarget=0;points=[[0,0.5],[1,0.5]];portConstraint=eastwest;top=0;left=0;right=0;bottom=0;" parent="A-Sq--vkPN-Wha185jc0-43" vertex="1">
          <mxGeometry y="120" width="310" height="30" as="geometry" />
        </mxCell>
        <mxCell id="A-Sq--vkPN-Wha185jc0-57" value="FK_P" style="shape=partialRectangle;connectable=0;fillColor=none;top=0;left=0;bottom=0;right=0;editable=1;overflow=hidden;whiteSpace=wrap;html=1;" parent="A-Sq--vkPN-Wha185jc0-56" vertex="1">
          <mxGeometry width="60" height="30" as="geometry">
            <mxRectangle width="60" height="30" as="alternateBounds" />
          </mxGeometry>
        </mxCell>
        <mxCell id="A-Sq--vkPN-Wha185jc0-58" value="Page" style="shape=partialRectangle;connectable=0;fillColor=none;top=0;left=0;bottom=0;right=0;align=left;spacingLeft=6;overflow=hidden;whiteSpace=wrap;html=1;" parent="A-Sq--vkPN-Wha185jc0-56" vertex="1">
          <mxGeometry x="60" width="250" height="30" as="geometry">
            <mxRectangle width="250" height="30" as="alternateBounds" />
          </mxGeometry>
        </mxCell>
        <mxCell id="59b3F3UpA_xY0RzTpe_1-48" style="shape=tableRow;horizontal=0;startSize=0;swimlaneHead=0;swimlaneBody=0;fillColor=none;collapsible=0;dropTarget=0;points=[[0,0.5],[1,0.5]];portConstraint=eastwest;top=0;left=0;right=0;bottom=0;" parent="A-Sq--vkPN-Wha185jc0-43" vertex="1">
          <mxGeometry y="150" width="310" height="31" as="geometry" />
        </mxCell>
        <mxCell id="59b3F3UpA_xY0RzTpe_1-49" value="FK_S" style="shape=partialRectangle;connectable=0;fillColor=none;top=0;left=0;bottom=0;right=0;editable=1;overflow=hidden;whiteSpace=wrap;html=1;" parent="59b3F3UpA_xY0RzTpe_1-48" vertex="1">
          <mxGeometry width="60" height="31" as="geometry">
            <mxRectangle width="60" height="31" as="alternateBounds" />
          </mxGeometry>
        </mxCell>
        <mxCell id="59b3F3UpA_xY0RzTpe_1-50" value="Section" style="shape=partialRectangle;connectable=0;fillColor=none;top=0;left=0;bottom=0;right=0;align=left;spacingLeft=6;overflow=hidden;whiteSpace=wrap;html=1;" parent="59b3F3UpA_xY0RzTpe_1-48" vertex="1">
          <mxGeometry x="60" width="250" height="31" as="geometry">
            <mxRectangle width="250" height="31" as="alternateBounds" />
          </mxGeometry>
        </mxCell>
        <mxCell id="A-Sq--vkPN-Wha185jc0-72" style="edgeStyle=orthogonalEdgeStyle;rounded=0;orthogonalLoop=1;jettySize=auto;html=1;entryX=1;entryY=0.5;entryDx=0;entryDy=0;" parent="1" source="A-Sq--vkPN-Wha185jc0-59" target="A-Sq--vkPN-Wha185jc0-47" edge="1">
          <mxGeometry relative="1" as="geometry">
            <Array as="points">
              <mxPoint x="1430" y="584" />
            </Array>
          </mxGeometry>
        </mxCell>
        <mxCell id="A-Sq--vkPN-Wha185jc0-75" value="Also known as..." style="edgeLabel;html=1;align=center;verticalAlign=middle;resizable=0;points=[];" parent="A-Sq--vkPN-Wha185jc0-72" vertex="1" connectable="0">
          <mxGeometry x="-0.1497" y="3" relative="1" as="geometry">
            <mxPoint x="-1" as="offset" />
          </mxGeometry>
        </mxCell>
        <mxCell id="A-Sq--vkPN-Wha185jc0-59" value="Name_Appellation" style="shape=table;startSize=30;container=1;collapsible=1;childLayout=tableLayout;fixedRows=1;rowLines=0;fontStyle=1;align=center;resizeLast=1;html=1;" parent="1" vertex="1">
          <mxGeometry x="1320" y="160" width="190" height="90" as="geometry" />
        </mxCell>
        <mxCell id="A-Sq--vkPN-Wha185jc0-60" value="" style="shape=tableRow;horizontal=0;startSize=0;swimlaneHead=0;swimlaneBody=0;fillColor=none;collapsible=0;dropTarget=0;points=[[0,0.5],[1,0.5]];portConstraint=eastwest;top=0;left=0;right=0;bottom=1;" parent="A-Sq--vkPN-Wha185jc0-59" vertex="1">
          <mxGeometry y="30" width="190" height="30" as="geometry" />
        </mxCell>
        <mxCell id="A-Sq--vkPN-Wha185jc0-61" value="PK" style="shape=partialRectangle;connectable=0;fillColor=none;top=0;left=0;bottom=0;right=0;fontStyle=1;overflow=hidden;whiteSpace=wrap;html=1;" parent="A-Sq--vkPN-Wha185jc0-60" vertex="1">
          <mxGeometry width="60" height="30" as="geometry">
            <mxRectangle width="60" height="30" as="alternateBounds" />
          </mxGeometry>
        </mxCell>
        <mxCell id="A-Sq--vkPN-Wha185jc0-62" value="NA" style="shape=partialRectangle;connectable=0;fillColor=none;top=0;left=0;bottom=0;right=0;align=left;spacingLeft=6;fontStyle=5;overflow=hidden;whiteSpace=wrap;html=1;" parent="A-Sq--vkPN-Wha185jc0-60" vertex="1">
          <mxGeometry x="60" width="130" height="30" as="geometry">
            <mxRectangle width="130" height="30" as="alternateBounds" />
          </mxGeometry>
        </mxCell>
        <mxCell id="A-Sq--vkPN-Wha185jc0-63" value="" style="shape=tableRow;horizontal=0;startSize=0;swimlaneHead=0;swimlaneBody=0;fillColor=none;collapsible=0;dropTarget=0;points=[[0,0.5],[1,0.5]];portConstraint=eastwest;top=0;left=0;right=0;bottom=0;" parent="A-Sq--vkPN-Wha185jc0-59" vertex="1">
          <mxGeometry y="60" width="190" height="30" as="geometry" />
        </mxCell>
        <mxCell id="A-Sq--vkPN-Wha185jc0-64" value="" style="shape=partialRectangle;connectable=0;fillColor=none;top=0;left=0;bottom=0;right=0;editable=1;overflow=hidden;whiteSpace=wrap;html=1;" parent="A-Sq--vkPN-Wha185jc0-63" vertex="1">
          <mxGeometry width="60" height="30" as="geometry">
            <mxRectangle width="60" height="30" as="alternateBounds" />
          </mxGeometry>
        </mxCell>
        <mxCell id="A-Sq--vkPN-Wha185jc0-65" value="Name" style="shape=partialRectangle;connectable=0;fillColor=none;top=0;left=0;bottom=0;right=0;align=left;spacingLeft=6;overflow=hidden;whiteSpace=wrap;html=1;" parent="A-Sq--vkPN-Wha185jc0-63" vertex="1">
          <mxGeometry x="60" width="130" height="30" as="geometry">
            <mxRectangle width="130" height="30" as="alternateBounds" />
          </mxGeometry>
        </mxCell>
        <mxCell id="A-Sq--vkPN-Wha185jc0-73" style="edgeStyle=orthogonalEdgeStyle;rounded=0;orthogonalLoop=1;jettySize=auto;html=1;entryX=1;entryY=0.5;entryDx=0;entryDy=0;exitX=0.528;exitY=-0.014;exitDx=0;exitDy=0;exitPerimeter=0;" parent="1" source="A-Sq--vkPN-Wha185jc0-59" target="A-Sq--vkPN-Wha185jc0-18" edge="1">
          <mxGeometry relative="1" as="geometry">
            <mxPoint x="1420" y="150" as="sourcePoint" />
            <Array as="points">
              <mxPoint x="1415" y="159" />
              <mxPoint x="1415" y="130" />
              <mxPoint x="1080" y="130" />
              <mxPoint x="1080" y="160" />
              <mxPoint x="890" y="160" />
            </Array>
          </mxGeometry>
        </mxCell>
        <mxCell id="A-Sq--vkPN-Wha185jc0-74" value="Is indexed under the name..." style="edgeLabel;html=1;align=center;verticalAlign=middle;resizable=0;points=[];" parent="A-Sq--vkPN-Wha185jc0-73" vertex="1" connectable="0">
          <mxGeometry x="-0.3707" y="5" relative="1" as="geometry">
            <mxPoint y="-5" as="offset" />
          </mxGeometry>
        </mxCell>
        <mxCell id="A-Sq--vkPN-Wha185jc0-76" value="Profession" style="shape=table;startSize=30;container=1;collapsible=1;childLayout=tableLayout;fixedRows=1;rowLines=0;fontStyle=1;align=center;resizeLast=1;html=1;" parent="1" vertex="1">
          <mxGeometry x="1440" y="620" width="170" height="90" as="geometry" />
        </mxCell>
        <mxCell id="A-Sq--vkPN-Wha185jc0-77" value="" style="shape=tableRow;horizontal=0;startSize=0;swimlaneHead=0;swimlaneBody=0;fillColor=none;collapsible=0;dropTarget=0;points=[[0,0.5],[1,0.5]];portConstraint=eastwest;top=0;left=0;right=0;bottom=1;" parent="A-Sq--vkPN-Wha185jc0-76" vertex="1">
          <mxGeometry y="30" width="170" height="30" as="geometry" />
        </mxCell>
        <mxCell id="A-Sq--vkPN-Wha185jc0-78" value="PK" style="shape=partialRectangle;connectable=0;fillColor=none;top=0;left=0;bottom=0;right=0;fontStyle=1;overflow=hidden;whiteSpace=wrap;html=1;" parent="A-Sq--vkPN-Wha185jc0-77" vertex="1">
          <mxGeometry width="60" height="30" as="geometry">
            <mxRectangle width="60" height="30" as="alternateBounds" />
          </mxGeometry>
        </mxCell>
        <mxCell id="A-Sq--vkPN-Wha185jc0-79" value="PR" style="shape=partialRectangle;connectable=0;fillColor=none;top=0;left=0;bottom=0;right=0;align=left;spacingLeft=6;fontStyle=5;overflow=hidden;whiteSpace=wrap;html=1;" parent="A-Sq--vkPN-Wha185jc0-77" vertex="1">
          <mxGeometry x="60" width="110" height="30" as="geometry">
            <mxRectangle width="110" height="30" as="alternateBounds" />
          </mxGeometry>
        </mxCell>
        <mxCell id="A-Sq--vkPN-Wha185jc0-80" value="" style="shape=tableRow;horizontal=0;startSize=0;swimlaneHead=0;swimlaneBody=0;fillColor=none;collapsible=0;dropTarget=0;points=[[0,0.5],[1,0.5]];portConstraint=eastwest;top=0;left=0;right=0;bottom=0;" parent="A-Sq--vkPN-Wha185jc0-76" vertex="1">
          <mxGeometry y="60" width="170" height="30" as="geometry" />
        </mxCell>
        <mxCell id="A-Sq--vkPN-Wha185jc0-81" value="" style="shape=partialRectangle;connectable=0;fillColor=none;top=0;left=0;bottom=0;right=0;editable=1;overflow=hidden;whiteSpace=wrap;html=1;" parent="A-Sq--vkPN-Wha185jc0-80" vertex="1">
          <mxGeometry width="60" height="30" as="geometry">
            <mxRectangle width="60" height="30" as="alternateBounds" />
          </mxGeometry>
        </mxCell>
        <mxCell id="A-Sq--vkPN-Wha185jc0-82" value="Name" style="shape=partialRectangle;connectable=0;fillColor=none;top=0;left=0;bottom=0;right=0;align=left;spacingLeft=6;overflow=hidden;whiteSpace=wrap;html=1;" parent="A-Sq--vkPN-Wha185jc0-80" vertex="1">
          <mxGeometry x="60" width="110" height="30" as="geometry">
            <mxRectangle width="110" height="30" as="alternateBounds" />
          </mxGeometry>
        </mxCell>
        <mxCell id="A-Sq--vkPN-Wha185jc0-83" value="Pages" style="shape=table;startSize=30;container=1;collapsible=1;childLayout=tableLayout;fixedRows=1;rowLines=0;fontStyle=1;align=center;resizeLast=1;html=1;" parent="1" vertex="1">
          <mxGeometry x="680" y="480" width="170" height="150" as="geometry" />
        </mxCell>
        <mxCell id="A-Sq--vkPN-Wha185jc0-84" value="" style="shape=tableRow;horizontal=0;startSize=0;swimlaneHead=0;swimlaneBody=0;fillColor=none;collapsible=0;dropTarget=0;points=[[0,0.5],[1,0.5]];portConstraint=eastwest;top=0;left=0;right=0;bottom=1;" parent="A-Sq--vkPN-Wha185jc0-83" vertex="1">
          <mxGeometry y="30" width="170" height="30" as="geometry" />
        </mxCell>
        <mxCell id="A-Sq--vkPN-Wha185jc0-85" value="PK" style="shape=partialRectangle;connectable=0;fillColor=none;top=0;left=0;bottom=0;right=0;fontStyle=1;overflow=hidden;whiteSpace=wrap;html=1;" parent="A-Sq--vkPN-Wha185jc0-84" vertex="1">
          <mxGeometry width="60" height="30" as="geometry">
            <mxRectangle width="60" height="30" as="alternateBounds" />
          </mxGeometry>
        </mxCell>
        <mxCell id="A-Sq--vkPN-Wha185jc0-86" value="P" style="shape=partialRectangle;connectable=0;fillColor=none;top=0;left=0;bottom=0;right=0;align=left;spacingLeft=6;fontStyle=5;overflow=hidden;whiteSpace=wrap;html=1;" parent="A-Sq--vkPN-Wha185jc0-84" vertex="1">
          <mxGeometry x="60" width="110" height="30" as="geometry">
            <mxRectangle width="110" height="30" as="alternateBounds" />
          </mxGeometry>
        </mxCell>
        <mxCell id="A-Sq--vkPN-Wha185jc0-87" value="" style="shape=tableRow;horizontal=0;startSize=0;swimlaneHead=0;swimlaneBody=0;fillColor=none;collapsible=0;dropTarget=0;points=[[0,0.5],[1,0.5]];portConstraint=eastwest;top=0;left=0;right=0;bottom=0;" parent="A-Sq--vkPN-Wha185jc0-83" vertex="1">
          <mxGeometry y="60" width="170" height="30" as="geometry" />
        </mxCell>
        <mxCell id="A-Sq--vkPN-Wha185jc0-88" value="" style="shape=partialRectangle;connectable=0;fillColor=none;top=0;left=0;bottom=0;right=0;editable=1;overflow=hidden;whiteSpace=wrap;html=1;" parent="A-Sq--vkPN-Wha185jc0-87" vertex="1">
          <mxGeometry width="60" height="30" as="geometry">
            <mxRectangle width="60" height="30" as="alternateBounds" />
          </mxGeometry>
        </mxCell>
        <mxCell id="A-Sq--vkPN-Wha185jc0-89" value="Page(s)" style="shape=partialRectangle;connectable=0;fillColor=none;top=0;left=0;bottom=0;right=0;align=left;spacingLeft=6;overflow=hidden;whiteSpace=wrap;html=1;" parent="A-Sq--vkPN-Wha185jc0-87" vertex="1">
          <mxGeometry x="60" width="110" height="30" as="geometry">
            <mxRectangle width="110" height="30" as="alternateBounds" />
          </mxGeometry>
        </mxCell>
        <mxCell id="59b3F3UpA_xY0RzTpe_1-1" style="shape=tableRow;horizontal=0;startSize=0;swimlaneHead=0;swimlaneBody=0;fillColor=none;collapsible=0;dropTarget=0;points=[[0,0.5],[1,0.5]];portConstraint=eastwest;top=0;left=0;right=0;bottom=0;" parent="A-Sq--vkPN-Wha185jc0-83" vertex="1">
          <mxGeometry y="90" width="170" height="30" as="geometry" />
        </mxCell>
        <mxCell id="59b3F3UpA_xY0RzTpe_1-2" value="FK_S" style="shape=partialRectangle;connectable=0;fillColor=none;top=0;left=0;bottom=0;right=0;editable=1;overflow=hidden;whiteSpace=wrap;html=1;" parent="59b3F3UpA_xY0RzTpe_1-1" vertex="1">
          <mxGeometry width="60" height="30" as="geometry">
            <mxRectangle width="60" height="30" as="alternateBounds" />
          </mxGeometry>
        </mxCell>
        <mxCell id="59b3F3UpA_xY0RzTpe_1-3" value="Section" style="shape=partialRectangle;connectable=0;fillColor=none;top=0;left=0;bottom=0;right=0;align=left;spacingLeft=6;overflow=hidden;whiteSpace=wrap;html=1;" parent="59b3F3UpA_xY0RzTpe_1-1" vertex="1">
          <mxGeometry x="60" width="110" height="30" as="geometry">
            <mxRectangle width="110" height="30" as="alternateBounds" />
          </mxGeometry>
        </mxCell>
        <mxCell id="59b3F3UpA_xY0RzTpe_1-4" style="shape=tableRow;horizontal=0;startSize=0;swimlaneHead=0;swimlaneBody=0;fillColor=none;collapsible=0;dropTarget=0;points=[[0,0.5],[1,0.5]];portConstraint=eastwest;top=0;left=0;right=0;bottom=0;" parent="A-Sq--vkPN-Wha185jc0-83" vertex="1">
          <mxGeometry y="120" width="170" height="30" as="geometry" />
        </mxCell>
        <mxCell id="59b3F3UpA_xY0RzTpe_1-5" value="FK_V" style="shape=partialRectangle;connectable=0;fillColor=none;top=0;left=0;bottom=0;right=0;editable=1;overflow=hidden;whiteSpace=wrap;html=1;" parent="59b3F3UpA_xY0RzTpe_1-4" vertex="1">
          <mxGeometry width="60" height="30" as="geometry">
            <mxRectangle width="60" height="30" as="alternateBounds" />
          </mxGeometry>
        </mxCell>
        <mxCell id="59b3F3UpA_xY0RzTpe_1-6" value="&quot;Vita&quot;" style="shape=partialRectangle;connectable=0;fillColor=none;top=0;left=0;bottom=0;right=0;align=left;spacingLeft=6;overflow=hidden;whiteSpace=wrap;html=1;" parent="59b3F3UpA_xY0RzTpe_1-4" vertex="1">
          <mxGeometry x="60" width="110" height="30" as="geometry">
            <mxRectangle width="110" height="30" as="alternateBounds" />
          </mxGeometry>
        </mxCell>
        <mxCell id="59b3F3UpA_xY0RzTpe_1-10" value="Vita" style="shape=table;startSize=30;container=1;collapsible=1;childLayout=tableLayout;fixedRows=1;rowLines=0;fontStyle=1;align=center;resizeLast=1;html=1;" parent="1" vertex="1">
          <mxGeometry x="220" y="500" width="170" height="120" as="geometry" />
        </mxCell>
        <mxCell id="59b3F3UpA_xY0RzTpe_1-11" value="" style="shape=tableRow;horizontal=0;startSize=0;swimlaneHead=0;swimlaneBody=0;fillColor=none;collapsible=0;dropTarget=0;points=[[0,0.5],[1,0.5]];portConstraint=eastwest;top=0;left=0;right=0;bottom=1;" parent="59b3F3UpA_xY0RzTpe_1-10" vertex="1">
          <mxGeometry y="30" width="170" height="30" as="geometry" />
        </mxCell>
        <mxCell id="59b3F3UpA_xY0RzTpe_1-12" value="PK" style="shape=partialRectangle;connectable=0;fillColor=none;top=0;left=0;bottom=0;right=0;fontStyle=1;overflow=hidden;whiteSpace=wrap;html=1;" parent="59b3F3UpA_xY0RzTpe_1-11" vertex="1">
          <mxGeometry width="60" height="30" as="geometry">
            <mxRectangle width="60" height="30" as="alternateBounds" />
          </mxGeometry>
        </mxCell>
        <mxCell id="59b3F3UpA_xY0RzTpe_1-13" value="V" style="shape=partialRectangle;connectable=0;fillColor=none;top=0;left=0;bottom=0;right=0;align=left;spacingLeft=6;fontStyle=5;overflow=hidden;whiteSpace=wrap;html=1;" parent="59b3F3UpA_xY0RzTpe_1-11" vertex="1">
          <mxGeometry x="60" width="110" height="30" as="geometry">
            <mxRectangle width="110" height="30" as="alternateBounds" />
          </mxGeometry>
        </mxCell>
        <mxCell id="qjXZ7OdbdAeNsSrvyAzl-45" style="shape=tableRow;horizontal=0;startSize=0;swimlaneHead=0;swimlaneBody=0;fillColor=none;collapsible=0;dropTarget=0;points=[[0,0.5],[1,0.5]];portConstraint=eastwest;top=0;left=0;right=0;bottom=0;" parent="59b3F3UpA_xY0RzTpe_1-10" vertex="1">
          <mxGeometry y="60" width="170" height="30" as="geometry" />
        </mxCell>
        <mxCell id="qjXZ7OdbdAeNsSrvyAzl-46" style="shape=partialRectangle;connectable=0;fillColor=none;top=0;left=0;bottom=0;right=0;editable=1;overflow=hidden;whiteSpace=wrap;html=1;" parent="qjXZ7OdbdAeNsSrvyAzl-45" vertex="1">
          <mxGeometry width="60" height="30" as="geometry">
            <mxRectangle width="60" height="30" as="alternateBounds" />
          </mxGeometry>
        </mxCell>
        <mxCell id="qjXZ7OdbdAeNsSrvyAzl-47" value="Name" style="shape=partialRectangle;connectable=0;fillColor=none;top=0;left=0;bottom=0;right=0;align=left;spacingLeft=6;overflow=hidden;whiteSpace=wrap;html=1;" parent="qjXZ7OdbdAeNsSrvyAzl-45" vertex="1">
          <mxGeometry x="60" width="110" height="30" as="geometry">
            <mxRectangle width="110" height="30" as="alternateBounds" />
          </mxGeometry>
        </mxCell>
        <mxCell id="59b3F3UpA_xY0RzTpe_1-14" value="" style="shape=tableRow;horizontal=0;startSize=0;swimlaneHead=0;swimlaneBody=0;fillColor=none;collapsible=0;dropTarget=0;points=[[0,0.5],[1,0.5]];portConstraint=eastwest;top=0;left=0;right=0;bottom=0;" parent="59b3F3UpA_xY0RzTpe_1-10" vertex="1">
          <mxGeometry y="90" width="170" height="30" as="geometry" />
        </mxCell>
        <mxCell id="59b3F3UpA_xY0RzTpe_1-15" value="FK_P" style="shape=partialRectangle;connectable=0;fillColor=none;top=0;left=0;bottom=0;right=0;editable=1;overflow=hidden;whiteSpace=wrap;html=1;" parent="59b3F3UpA_xY0RzTpe_1-14" vertex="1">
          <mxGeometry width="60" height="30" as="geometry">
            <mxRectangle width="60" height="30" as="alternateBounds" />
          </mxGeometry>
        </mxCell>
        <mxCell id="59b3F3UpA_xY0RzTpe_1-16" value="Page(s)" style="shape=partialRectangle;connectable=0;fillColor=none;top=0;left=0;bottom=0;right=0;align=left;spacingLeft=6;overflow=hidden;whiteSpace=wrap;html=1;" parent="59b3F3UpA_xY0RzTpe_1-14" vertex="1">
          <mxGeometry x="60" width="110" height="30" as="geometry">
            <mxRectangle width="110" height="30" as="alternateBounds" />
          </mxGeometry>
        </mxCell>
        <mxCell id="59b3F3UpA_xY0RzTpe_1-23" value="Section" style="shape=table;startSize=30;container=1;collapsible=1;childLayout=tableLayout;fixedRows=1;rowLines=0;fontStyle=1;align=center;resizeLast=1;html=1;" parent="1" vertex="1">
          <mxGeometry x="210" y="660" width="170" height="90" as="geometry" />
        </mxCell>
        <mxCell id="59b3F3UpA_xY0RzTpe_1-24" value="" style="shape=tableRow;horizontal=0;startSize=0;swimlaneHead=0;swimlaneBody=0;fillColor=none;collapsible=0;dropTarget=0;points=[[0,0.5],[1,0.5]];portConstraint=eastwest;top=0;left=0;right=0;bottom=1;" parent="59b3F3UpA_xY0RzTpe_1-23" vertex="1">
          <mxGeometry y="30" width="170" height="30" as="geometry" />
        </mxCell>
        <mxCell id="59b3F3UpA_xY0RzTpe_1-25" value="PK" style="shape=partialRectangle;connectable=0;fillColor=none;top=0;left=0;bottom=0;right=0;fontStyle=1;overflow=hidden;whiteSpace=wrap;html=1;" parent="59b3F3UpA_xY0RzTpe_1-24" vertex="1">
          <mxGeometry width="60" height="30" as="geometry">
            <mxRectangle width="60" height="30" as="alternateBounds" />
          </mxGeometry>
        </mxCell>
        <mxCell id="59b3F3UpA_xY0RzTpe_1-26" value="S" style="shape=partialRectangle;connectable=0;fillColor=none;top=0;left=0;bottom=0;right=0;align=left;spacingLeft=6;fontStyle=5;overflow=hidden;whiteSpace=wrap;html=1;" parent="59b3F3UpA_xY0RzTpe_1-24" vertex="1">
          <mxGeometry x="60" width="110" height="30" as="geometry">
            <mxRectangle width="110" height="30" as="alternateBounds" />
          </mxGeometry>
        </mxCell>
        <mxCell id="59b3F3UpA_xY0RzTpe_1-27" value="" style="shape=tableRow;horizontal=0;startSize=0;swimlaneHead=0;swimlaneBody=0;fillColor=none;collapsible=0;dropTarget=0;points=[[0,0.5],[1,0.5]];portConstraint=eastwest;top=0;left=0;right=0;bottom=0;" parent="59b3F3UpA_xY0RzTpe_1-23" vertex="1">
          <mxGeometry y="60" width="170" height="30" as="geometry" />
        </mxCell>
        <mxCell id="59b3F3UpA_xY0RzTpe_1-28" value="" style="shape=partialRectangle;connectable=0;fillColor=none;top=0;left=0;bottom=0;right=0;editable=1;overflow=hidden;whiteSpace=wrap;html=1;" parent="59b3F3UpA_xY0RzTpe_1-27" vertex="1">
          <mxGeometry width="60" height="30" as="geometry">
            <mxRectangle width="60" height="30" as="alternateBounds" />
          </mxGeometry>
        </mxCell>
        <mxCell id="59b3F3UpA_xY0RzTpe_1-29" value="Name" style="shape=partialRectangle;connectable=0;fillColor=none;top=0;left=0;bottom=0;right=0;align=left;spacingLeft=6;overflow=hidden;whiteSpace=wrap;html=1;" parent="59b3F3UpA_xY0RzTpe_1-27" vertex="1">
          <mxGeometry x="60" width="110" height="30" as="geometry">
            <mxRectangle width="110" height="30" as="alternateBounds" />
          </mxGeometry>
        </mxCell>
        <mxCell id="59b3F3UpA_xY0RzTpe_1-39" style="edgeStyle=orthogonalEdgeStyle;rounded=0;orthogonalLoop=1;jettySize=auto;html=1;exitX=1;exitY=0.5;exitDx=0;exitDy=0;entryX=0;entryY=0.5;entryDx=0;entryDy=0;" parent="1" source="59b3F3UpA_xY0RzTpe_1-14" target="59b3F3UpA_xY0RzTpe_1-4" edge="1">
          <mxGeometry relative="1" as="geometry">
            <Array as="points">
              <mxPoint x="410" y="585" />
              <mxPoint x="410" y="615" />
            </Array>
          </mxGeometry>
        </mxCell>
        <mxCell id="59b3F3UpA_xY0RzTpe_1-40" style="edgeStyle=orthogonalEdgeStyle;rounded=0;orthogonalLoop=1;jettySize=auto;html=1;exitX=1;exitY=0.5;exitDx=0;exitDy=0;entryX=0;entryY=0.5;entryDx=0;entryDy=0;" parent="1" source="59b3F3UpA_xY0RzTpe_1-24" target="A-Sq--vkPN-Wha185jc0-96" edge="1">
          <mxGeometry relative="1" as="geometry" />
        </mxCell>
        <mxCell id="59b3F3UpA_xY0RzTpe_1-52" value="&lt;span style=&quot;color: rgba(0, 0, 0, 0); font-family: monospace; font-size: 0px; text-align: start; background-color: rgb(27, 29, 30);&quot;&gt;%3CmxGraphModel%3E%3Croot%3E%3CmxCell%20id%3D%220%22%2F%3E%3CmxCell%20id%3D%221%22%20parent%3D%220%22%2F%3E%3CmxCell%20id%3D%222%22%20value%3D%22Belongs%20to...%22%20style%3D%22edgeLabel%3Bhtml%3D1%3Balign%3Dcenter%3BverticalAlign%3Dmiddle%3Bresizable%3D0%3Bpoints%3D%5B%5D%3B%22%20vertex%3D%221%22%20connectable%3D%220%22%20parent%3D%221%22%3E%3CmxGeometry%20x%3D%22172.0666666666666%22%20y%3D%22341.9333333333334%22%20as%3D%22geometry%22%2F%3E%3C%2FmxCell%3E%3C%2Froot%3E%3C%2FmxGraphModel%3E&lt;/span&gt;" style="edgeLabel;html=1;align=center;verticalAlign=middle;resizable=0;points=[];" parent="59b3F3UpA_xY0RzTpe_1-40" vertex="1" connectable="0">
          <mxGeometry x="0.144" y="-1" relative="1" as="geometry">
            <mxPoint as="offset" />
          </mxGeometry>
        </mxCell>
        <mxCell id="59b3F3UpA_xY0RzTpe_1-41" style="edgeStyle=orthogonalEdgeStyle;rounded=0;orthogonalLoop=1;jettySize=auto;html=1;exitX=1;exitY=0.5;exitDx=0;exitDy=0;entryX=0;entryY=0.5;entryDx=0;entryDy=0;" parent="1" source="59b3F3UpA_xY0RzTpe_1-24" target="59b3F3UpA_xY0RzTpe_1-1" edge="1">
          <mxGeometry relative="1" as="geometry" />
        </mxCell>
        <mxCell id="59b3F3UpA_xY0RzTpe_1-42" style="edgeStyle=orthogonalEdgeStyle;rounded=0;orthogonalLoop=1;jettySize=auto;html=1;exitX=0;exitY=0.5;exitDx=0;exitDy=0;entryX=0;entryY=0.5;entryDx=0;entryDy=0;" parent="1" source="59b3F3UpA_xY0RzTpe_1-24" target="A-Sq--vkPN-Wha185jc0-93" edge="1">
          <mxGeometry relative="1" as="geometry" />
        </mxCell>
        <mxCell id="59b3F3UpA_xY0RzTpe_1-43" style="edgeStyle=orthogonalEdgeStyle;rounded=0;orthogonalLoop=1;jettySize=auto;html=1;exitX=0;exitY=0.5;exitDx=0;exitDy=0;entryX=0;entryY=0.5;entryDx=0;entryDy=0;" parent="1" source="59b3F3UpA_xY0RzTpe_1-24" target="A-Sq--vkPN-Wha185jc0-90" edge="1">
          <mxGeometry relative="1" as="geometry" />
        </mxCell>
        <mxCell id="59b3F3UpA_xY0RzTpe_1-44" value="Belongs to..." style="edgeLabel;html=1;align=center;verticalAlign=middle;resizable=0;points=[];" parent="59b3F3UpA_xY0RzTpe_1-43" vertex="1" connectable="0">
          <mxGeometry x="-0.1702" y="-2" relative="1" as="geometry">
            <mxPoint y="-1" as="offset" />
          </mxGeometry>
        </mxCell>
        <mxCell id="59b3F3UpA_xY0RzTpe_1-51" style="edgeStyle=orthogonalEdgeStyle;rounded=0;orthogonalLoop=1;jettySize=auto;html=1;exitX=1;exitY=0.5;exitDx=0;exitDy=0;entryX=0;entryY=0.5;entryDx=0;entryDy=0;" parent="1" source="59b3F3UpA_xY0RzTpe_1-24" target="59b3F3UpA_xY0RzTpe_1-48" edge="1">
          <mxGeometry relative="1" as="geometry" />
        </mxCell>
        <mxCell id="59b3F3UpA_xY0RzTpe_1-53" value="Belongs to..." style="edgeLabel;html=1;align=center;verticalAlign=middle;resizable=0;points=[];" parent="1" vertex="1" connectable="0">
          <mxGeometry x="479.9966666666666" y="870.0033333333334" as="geometry" />
        </mxCell>
        <mxCell id="59b3F3UpA_xY0RzTpe_1-54" value="Belongs to..." style="edgeLabel;html=1;align=center;verticalAlign=middle;resizable=0;points=[];" parent="1" vertex="1" connectable="0">
          <mxGeometry x="859.9966666666667" y="670.0033333333334" as="geometry" />
        </mxCell>
        <mxCell id="59b3F3UpA_xY0RzTpe_1-55" value="Belongs to..." style="edgeLabel;html=1;align=center;verticalAlign=middle;resizable=0;points=[];" parent="1" vertex="1" connectable="0">
          <mxGeometry x="519.9966666666667" y="640.0033333333334" as="geometry" />
        </mxCell>
        <mxCell id="59b3F3UpA_xY0RzTpe_1-56" value="Belongs to..." style="edgeLabel;html=1;align=center;verticalAlign=middle;resizable=0;points=[];" parent="1" vertex="1" connectable="0">
          <mxGeometry x="59.99666666666667" y="680.0033333333334" as="geometry">
            <mxPoint x="151" y="-253" as="offset" />
          </mxGeometry>
        </mxCell>
        <mxCell id="vvmtOS7VFVNGs0L7xg0a-1" value="0,n" style="edgeLabel;html=1;align=center;verticalAlign=middle;resizable=0;points=[];" parent="1" vertex="1" connectable="0">
          <mxGeometry x="658" y="588.0769230769231" as="geometry">
            <mxPoint x="2" y="22" as="offset" />
          </mxGeometry>
        </mxCell>
        <mxCell id="vvmtOS7VFVNGs0L7xg0a-2" value="1,n" style="edgeLabel;html=1;align=center;verticalAlign=middle;resizable=0;points=[];" parent="1" vertex="1" connectable="0">
          <mxGeometry x="710" y="439.99692307692305" as="geometry">
            <mxPoint x="-51" y="142" as="offset" />
          </mxGeometry>
        </mxCell>
        <mxCell id="vvmtOS7VFVNGs0L7xg0a-3" value="1,n" style="edgeLabel;html=1;align=center;verticalAlign=middle;resizable=0;points=[];fontFamily=Helvetica;fontSize=11;fontColor=default;labelBackgroundColor=default;fillColor=none;gradientColor=none;" parent="1" vertex="1" connectable="0">
          <mxGeometry x="1060" y="529.996923076923" as="geometry">
            <mxPoint x="-51" y="142" as="offset" />
          </mxGeometry>
        </mxCell>
        <mxCell id="vvmtOS7VFVNGs0L7xg0a-4" value="1,n" style="edgeLabel;html=1;align=center;verticalAlign=middle;resizable=0;points=[];fontFamily=Helvetica;fontSize=11;fontColor=default;labelBackgroundColor=default;fillColor=none;gradientColor=none;" parent="1" vertex="1" connectable="0">
          <mxGeometry x="630" y="839.996923076923" as="geometry">
            <mxPoint x="-51" y="142" as="offset" />
          </mxGeometry>
        </mxCell>
        <mxCell id="vvmtOS7VFVNGs0L7xg0a-5" value="1,n" style="edgeLabel;html=1;align=center;verticalAlign=middle;resizable=0;points=[];fontFamily=Helvetica;fontSize=11;fontColor=default;labelBackgroundColor=default;fillColor=none;gradientColor=none;" parent="1" vertex="1" connectable="0">
          <mxGeometry x="600" y="109.99692307692305" as="geometry">
            <mxPoint x="-51" y="142" as="offset" />
          </mxGeometry>
        </mxCell>
        <mxCell id="qjXZ7OdbdAeNsSrvyAzl-1" value="Location_General" style="shape=table;startSize=30;container=1;collapsible=1;childLayout=tableLayout;fixedRows=1;rowLines=0;fontStyle=1;align=center;resizeLast=1;html=1;" parent="1" vertex="1">
          <mxGeometry x="190" y="840" width="170" height="120" as="geometry" />
        </mxCell>
        <mxCell id="qjXZ7OdbdAeNsSrvyAzl-2" value="" style="shape=tableRow;horizontal=0;startSize=0;swimlaneHead=0;swimlaneBody=0;fillColor=none;collapsible=0;dropTarget=0;points=[[0,0.5],[1,0.5]];portConstraint=eastwest;top=0;left=0;right=0;bottom=1;" parent="qjXZ7OdbdAeNsSrvyAzl-1" vertex="1">
          <mxGeometry y="30" width="170" height="30" as="geometry" />
        </mxCell>
        <mxCell id="qjXZ7OdbdAeNsSrvyAzl-3" value="PK" style="shape=partialRectangle;connectable=0;fillColor=none;top=0;left=0;bottom=0;right=0;fontStyle=1;overflow=hidden;whiteSpace=wrap;html=1;" parent="qjXZ7OdbdAeNsSrvyAzl-2" vertex="1">
          <mxGeometry width="60" height="30" as="geometry">
            <mxRectangle width="60" height="30" as="alternateBounds" />
          </mxGeometry>
        </mxCell>
        <mxCell id="qjXZ7OdbdAeNsSrvyAzl-4" value="LG" style="shape=partialRectangle;connectable=0;fillColor=none;top=0;left=0;bottom=0;right=0;align=left;spacingLeft=6;fontStyle=5;overflow=hidden;whiteSpace=wrap;html=1;" parent="qjXZ7OdbdAeNsSrvyAzl-2" vertex="1">
          <mxGeometry x="60" width="110" height="30" as="geometry">
            <mxRectangle width="110" height="30" as="alternateBounds" />
          </mxGeometry>
        </mxCell>
        <mxCell id="qjXZ7OdbdAeNsSrvyAzl-24" style="shape=tableRow;horizontal=0;startSize=0;swimlaneHead=0;swimlaneBody=0;fillColor=none;collapsible=0;dropTarget=0;points=[[0,0.5],[1,0.5]];portConstraint=eastwest;top=0;left=0;right=0;bottom=0;" parent="qjXZ7OdbdAeNsSrvyAzl-1" vertex="1">
          <mxGeometry y="60" width="170" height="30" as="geometry" />
        </mxCell>
        <mxCell id="qjXZ7OdbdAeNsSrvyAzl-25" style="shape=partialRectangle;connectable=0;fillColor=none;top=0;left=0;bottom=0;right=0;editable=1;overflow=hidden;whiteSpace=wrap;html=1;" parent="qjXZ7OdbdAeNsSrvyAzl-24" vertex="1">
          <mxGeometry width="60" height="30" as="geometry">
            <mxRectangle width="60" height="30" as="alternateBounds" />
          </mxGeometry>
        </mxCell>
        <mxCell id="qjXZ7OdbdAeNsSrvyAzl-26" value="Name" style="shape=partialRectangle;connectable=0;fillColor=none;top=0;left=0;bottom=0;right=0;align=left;spacingLeft=6;overflow=hidden;whiteSpace=wrap;html=1;" parent="qjXZ7OdbdAeNsSrvyAzl-24" vertex="1">
          <mxGeometry x="60" width="110" height="30" as="geometry">
            <mxRectangle width="110" height="30" as="alternateBounds" />
          </mxGeometry>
        </mxCell>
        <mxCell id="qjXZ7OdbdAeNsSrvyAzl-8" style="shape=tableRow;horizontal=0;startSize=0;swimlaneHead=0;swimlaneBody=0;fillColor=none;collapsible=0;dropTarget=0;points=[[0,0.5],[1,0.5]];portConstraint=eastwest;top=0;left=0;right=0;bottom=0;" parent="qjXZ7OdbdAeNsSrvyAzl-1" vertex="1">
          <mxGeometry y="90" width="170" height="30" as="geometry" />
        </mxCell>
        <mxCell id="qjXZ7OdbdAeNsSrvyAzl-9" value="FK_LS" style="shape=partialRectangle;connectable=0;fillColor=none;top=0;left=0;bottom=0;right=0;editable=1;overflow=hidden;whiteSpace=wrap;html=1;" parent="qjXZ7OdbdAeNsSrvyAzl-8" vertex="1">
          <mxGeometry width="60" height="30" as="geometry">
            <mxRectangle width="60" height="30" as="alternateBounds" />
          </mxGeometry>
        </mxCell>
        <mxCell id="qjXZ7OdbdAeNsSrvyAzl-10" value="Specific" style="shape=partialRectangle;connectable=0;fillColor=none;top=0;left=0;bottom=0;right=0;align=left;spacingLeft=6;overflow=hidden;whiteSpace=wrap;html=1;" parent="qjXZ7OdbdAeNsSrvyAzl-8" vertex="1">
          <mxGeometry x="60" width="110" height="30" as="geometry">
            <mxRectangle width="110" height="30" as="alternateBounds" />
          </mxGeometry>
        </mxCell>
        <mxCell id="qjXZ7OdbdAeNsSrvyAzl-27" style="edgeStyle=orthogonalEdgeStyle;rounded=0;orthogonalLoop=1;jettySize=auto;html=1;exitX=0;exitY=0.25;exitDx=0;exitDy=0;entryX=0;entryY=0.5;entryDx=0;entryDy=0;" parent="1" source="qjXZ7OdbdAeNsSrvyAzl-14" target="qjXZ7OdbdAeNsSrvyAzl-8" edge="1">
          <mxGeometry relative="1" as="geometry">
            <Array as="points">
              <mxPoint x="110" y="1100" />
              <mxPoint x="90" y="1100" />
              <mxPoint x="90" y="945" />
            </Array>
          </mxGeometry>
        </mxCell>
        <mxCell id="qjXZ7OdbdAeNsSrvyAzl-35" value="Was part of..." style="edgeLabel;html=1;align=center;verticalAlign=middle;resizable=0;points=[];" parent="qjXZ7OdbdAeNsSrvyAzl-27" vertex="1" connectable="0">
          <mxGeometry x="0.1918" y="-2" relative="1" as="geometry">
            <mxPoint x="38" y="-31" as="offset" />
          </mxGeometry>
        </mxCell>
        <mxCell id="qjXZ7OdbdAeNsSrvyAzl-14" value="Location_Specific" style="shape=table;startSize=30;container=1;collapsible=1;childLayout=tableLayout;fixedRows=1;rowLines=0;fontStyle=1;align=center;resizeLast=1;html=1;" parent="1" vertex="1">
          <mxGeometry x="110" y="1020" width="170" height="120" as="geometry" />
        </mxCell>
        <mxCell id="qjXZ7OdbdAeNsSrvyAzl-15" value="" style="shape=tableRow;horizontal=0;startSize=0;swimlaneHead=0;swimlaneBody=0;fillColor=none;collapsible=0;dropTarget=0;points=[[0,0.5],[1,0.5]];portConstraint=eastwest;top=0;left=0;right=0;bottom=1;" parent="qjXZ7OdbdAeNsSrvyAzl-14" vertex="1">
          <mxGeometry y="30" width="170" height="30" as="geometry" />
        </mxCell>
        <mxCell id="qjXZ7OdbdAeNsSrvyAzl-16" value="PK" style="shape=partialRectangle;connectable=0;fillColor=none;top=0;left=0;bottom=0;right=0;fontStyle=1;overflow=hidden;whiteSpace=wrap;html=1;" parent="qjXZ7OdbdAeNsSrvyAzl-15" vertex="1">
          <mxGeometry width="60" height="30" as="geometry">
            <mxRectangle width="60" height="30" as="alternateBounds" />
          </mxGeometry>
        </mxCell>
        <mxCell id="qjXZ7OdbdAeNsSrvyAzl-17" value="LS" style="shape=partialRectangle;connectable=0;fillColor=none;top=0;left=0;bottom=0;right=0;align=left;spacingLeft=6;fontStyle=5;overflow=hidden;whiteSpace=wrap;html=1;" parent="qjXZ7OdbdAeNsSrvyAzl-15" vertex="1">
          <mxGeometry x="60" width="110" height="30" as="geometry">
            <mxRectangle width="110" height="30" as="alternateBounds" />
          </mxGeometry>
        </mxCell>
        <mxCell id="qjXZ7OdbdAeNsSrvyAzl-48" style="shape=tableRow;horizontal=0;startSize=0;swimlaneHead=0;swimlaneBody=0;fillColor=none;collapsible=0;dropTarget=0;points=[[0,0.5],[1,0.5]];portConstraint=eastwest;top=0;left=0;right=0;bottom=0;" parent="qjXZ7OdbdAeNsSrvyAzl-14" vertex="1">
          <mxGeometry y="60" width="170" height="30" as="geometry" />
        </mxCell>
        <mxCell id="qjXZ7OdbdAeNsSrvyAzl-49" value="FK_LG" style="shape=partialRectangle;connectable=0;fillColor=none;top=0;left=0;bottom=0;right=0;editable=1;overflow=hidden;whiteSpace=wrap;html=1;" parent="qjXZ7OdbdAeNsSrvyAzl-48" vertex="1">
          <mxGeometry width="60" height="30" as="geometry">
            <mxRectangle width="60" height="30" as="alternateBounds" />
          </mxGeometry>
        </mxCell>
        <mxCell id="qjXZ7OdbdAeNsSrvyAzl-50" value="Parent_Location" style="shape=partialRectangle;connectable=0;fillColor=none;top=0;left=0;bottom=0;right=0;align=left;spacingLeft=6;overflow=hidden;whiteSpace=wrap;html=1;" parent="qjXZ7OdbdAeNsSrvyAzl-48" vertex="1">
          <mxGeometry x="60" width="110" height="30" as="geometry">
            <mxRectangle width="110" height="30" as="alternateBounds" />
          </mxGeometry>
        </mxCell>
        <mxCell id="qjXZ7OdbdAeNsSrvyAzl-18" style="shape=tableRow;horizontal=0;startSize=0;swimlaneHead=0;swimlaneBody=0;fillColor=none;collapsible=0;dropTarget=0;points=[[0,0.5],[1,0.5]];portConstraint=eastwest;top=0;left=0;right=0;bottom=0;" parent="qjXZ7OdbdAeNsSrvyAzl-14" vertex="1">
          <mxGeometry y="90" width="170" height="30" as="geometry" />
        </mxCell>
        <mxCell id="qjXZ7OdbdAeNsSrvyAzl-19" value="" style="shape=partialRectangle;connectable=0;fillColor=none;top=0;left=0;bottom=0;right=0;editable=1;overflow=hidden;whiteSpace=wrap;html=1;" parent="qjXZ7OdbdAeNsSrvyAzl-18" vertex="1">
          <mxGeometry width="60" height="30" as="geometry">
            <mxRectangle width="60" height="30" as="alternateBounds" />
          </mxGeometry>
        </mxCell>
        <mxCell id="qjXZ7OdbdAeNsSrvyAzl-20" value="Name" style="shape=partialRectangle;connectable=0;fillColor=none;top=0;left=0;bottom=0;right=0;align=left;spacingLeft=6;overflow=hidden;whiteSpace=wrap;html=1;" parent="qjXZ7OdbdAeNsSrvyAzl-18" vertex="1">
          <mxGeometry x="60" width="110" height="30" as="geometry">
            <mxRectangle width="110" height="30" as="alternateBounds" />
          </mxGeometry>
        </mxCell>
        <mxCell id="qjXZ7OdbdAeNsSrvyAzl-28" style="edgeStyle=orthogonalEdgeStyle;rounded=0;orthogonalLoop=1;jettySize=auto;html=1;exitX=1;exitY=0.5;exitDx=0;exitDy=0;entryX=0;entryY=0.5;entryDx=0;entryDy=0;" parent="1" source="qjXZ7OdbdAeNsSrvyAzl-24" target="A-Sq--vkPN-Wha185jc0-40" edge="1">
          <mxGeometry relative="1" as="geometry" />
        </mxCell>
        <mxCell id="qjXZ7OdbdAeNsSrvyAzl-34" value="Was located at" style="edgeLabel;html=1;align=center;verticalAlign=middle;resizable=0;points=[];" parent="qjXZ7OdbdAeNsSrvyAzl-28" vertex="1" connectable="0">
          <mxGeometry x="-0.5965" y="2" relative="1" as="geometry">
            <mxPoint as="offset" />
          </mxGeometry>
        </mxCell>
        <mxCell id="qjXZ7OdbdAeNsSrvyAzl-41" value="1,1" style="edgeLabel;html=1;align=center;verticalAlign=middle;resizable=0;points=[];" parent="qjXZ7OdbdAeNsSrvyAzl-28" vertex="1" connectable="0">
          <mxGeometry x="0.7369" y="-1" relative="1" as="geometry">
            <mxPoint as="offset" />
          </mxGeometry>
        </mxCell>
        <mxCell id="qjXZ7OdbdAeNsSrvyAzl-29" style="edgeStyle=orthogonalEdgeStyle;rounded=0;orthogonalLoop=1;jettySize=auto;html=1;exitX=0;exitY=0.5;exitDx=0;exitDy=0;entryX=-0.006;entryY=0.786;entryDx=0;entryDy=0;entryPerimeter=0;" parent="1" source="qjXZ7OdbdAeNsSrvyAzl-24" target="A-Sq--vkPN-Wha185jc0-18" edge="1">
          <mxGeometry relative="1" as="geometry" />
        </mxCell>
        <mxCell id="qjXZ7OdbdAeNsSrvyAzl-37" value="Is indexed in" style="edgeLabel;html=1;align=center;verticalAlign=middle;resizable=0;points=[];" parent="qjXZ7OdbdAeNsSrvyAzl-29" vertex="1" connectable="0">
          <mxGeometry x="0.6325" y="-3" relative="1" as="geometry">
            <mxPoint as="offset" />
          </mxGeometry>
        </mxCell>
        <mxCell id="qjXZ7OdbdAeNsSrvyAzl-39" value="1,n" style="edgeLabel;html=1;align=center;verticalAlign=middle;resizable=0;points=[];" parent="qjXZ7OdbdAeNsSrvyAzl-29" vertex="1" connectable="0">
          <mxGeometry x="0.8899" y="1" relative="1" as="geometry">
            <mxPoint as="offset" />
          </mxGeometry>
        </mxCell>
        <mxCell id="qjXZ7OdbdAeNsSrvyAzl-30" style="edgeStyle=orthogonalEdgeStyle;rounded=0;orthogonalLoop=1;jettySize=auto;html=1;exitX=0;exitY=0.5;exitDx=0;exitDy=0;entryX=-0.006;entryY=0.151;entryDx=0;entryDy=0;entryPerimeter=0;" parent="1" source="qjXZ7OdbdAeNsSrvyAzl-15" target="A-Sq--vkPN-Wha185jc0-18" edge="1">
          <mxGeometry relative="1" as="geometry">
            <Array as="points">
              <mxPoint x="110" y="1100" />
              <mxPoint x="90" y="1100" />
              <mxPoint x="90" y="184" />
            </Array>
          </mxGeometry>
        </mxCell>
        <mxCell id="qjXZ7OdbdAeNsSrvyAzl-36" value="Is indexed in" style="edgeLabel;html=1;align=center;verticalAlign=middle;resizable=0;points=[];" parent="qjXZ7OdbdAeNsSrvyAzl-30" vertex="1" connectable="0">
          <mxGeometry x="0.3706" relative="1" as="geometry">
            <mxPoint as="offset" />
          </mxGeometry>
        </mxCell>
        <mxCell id="qjXZ7OdbdAeNsSrvyAzl-38" value="1,n" style="edgeLabel;html=1;align=center;verticalAlign=middle;resizable=0;points=[];" parent="qjXZ7OdbdAeNsSrvyAzl-30" vertex="1" connectable="0">
          <mxGeometry x="0.9165" y="2" relative="1" as="geometry">
            <mxPoint as="offset" />
          </mxGeometry>
        </mxCell>
        <mxCell id="qjXZ7OdbdAeNsSrvyAzl-32" style="edgeStyle=orthogonalEdgeStyle;rounded=0;orthogonalLoop=1;jettySize=auto;html=1;exitX=1;exitY=0.5;exitDx=0;exitDy=0;entryX=0;entryY=0.5;entryDx=0;entryDy=0;" parent="1" source="qjXZ7OdbdAeNsSrvyAzl-18" target="A-Sq--vkPN-Wha185jc0-37" edge="1">
          <mxGeometry relative="1" as="geometry" />
        </mxCell>
        <mxCell id="qjXZ7OdbdAeNsSrvyAzl-33" value="Was located at" style="edgeLabel;html=1;align=center;verticalAlign=middle;resizable=0;points=[];" parent="qjXZ7OdbdAeNsSrvyAzl-32" vertex="1" connectable="0">
          <mxGeometry x="-0.5497" y="1" relative="1" as="geometry">
            <mxPoint as="offset" />
          </mxGeometry>
        </mxCell>
        <mxCell id="qjXZ7OdbdAeNsSrvyAzl-40" value="1,1" style="edgeLabel;html=1;align=center;verticalAlign=middle;resizable=0;points=[];" parent="qjXZ7OdbdAeNsSrvyAzl-32" vertex="1" connectable="0">
          <mxGeometry x="0.8693" y="2" relative="1" as="geometry">
            <mxPoint as="offset" />
          </mxGeometry>
        </mxCell>
      </root>
    </mxGraphModel>
  </diagram>
</mxfile>
